ffmpeg version 4.3 Copyright (c) 2000-2020 the FFmpeg developers
  built with gcc 9.3.1 (GCC) 20200621
  configuration: --enable-gpl --enable-version3 --enable-sdl2 --enable-fontconfig --enable-gnutls --enable-iconv --enable-libass --enable-libdav1d --enable-libbluray --enable-libfreetype --enable-libmp3lame --enable-libopencore-amrnb --enable-libopencore-amrwb --enable-libopenjpeg --enable-libopus --enable-libshine --enable-libsnappy --enable-libsoxr --enable-libsrt --enable-libtheora --enable-libtwolame --enable-libvpx --enable-libwavpack --enable-libwebp --enable-libx264 --enable-libx265 --enable-libxml2 --enable-libzimg --enable-lzma --enable-zlib --enable-gmp --enable-libvidstab --enable-libvmaf --enable-libvorbis --enable-libvo-amrwbenc --enable-libmysofa --enable-libspeex --enable-libxvid --enable-libaom --enable-libgsm --disable-w32threads --enable-libmfx --enable-ffnvcodec --enable-cuda-llvm --enable-cuvid --enable-d3d11va --enable-nvenc --enable-nvdec --enable-dxva2 --enable-avisynth --enable-libopenmpt --enable-amf
  libavutil      56. 51.100 / 56. 51.100
  libavcodec     58. 91.100 / 58. 91.100
  libavformat    58. 45.100 / 58. 45.100
  libavdevice    58. 10.100 / 58. 10.100
  libavfilter     7. 85.100 /  7. 85.100
  libswscale      5.  7.100 /  5.  7.100
  libswresample   3.  7.100 /  3.  7.100
  libpostproc    55.  7.100 / 55.  7.100
Input #0, mov,mp4,m4a,3gp,3g2,mj2, from 'C:/Users/bang/Desktop/Linux文本处理器sed/6-5-sed中的编辑命令详解(中)video.m4s':
  Metadata:
    major_brand     : iso5
    minor_version   : 1
    compatible_brands: avc1iso5dsmsmsixdash
    encoder         : Lavf57.71.100
    description     : Packed by Bilibili XCoder v2.0.2
  Duration: 00:20:49.50, start: 0.000000, bitrate: 1004 kb/s
    Stream #0:0(und): Video: h264 (High) (avc1 / 0x31637661), yuv420p, 1920x1080 [SAR 1:1 DAR 16:9], 5 kb/s, 30 fps, 30 tbr, 16k tbn, 60 tbc (default)
    Metadata:
      handler_name    : VideoHandler
Input #1, mov,mp4,m4a,3gp,3g2,mj2, from 'C:/Users/bang/Desktop/Linux文本处理器sed/6-5-sed中的编辑命令详解(中)audio.m4s':
  Metadata:
    major_brand     : iso5
    minor_version   : 1
    compatible_brands: avc1iso5dsmsmsixdash
    encoder         : Lavf57.71.100
    description     : Packed by Bilibili XCoder v2.0.2
  Duration: 00:20:49.60, start: 0.000000, bitrate: 137 kb/s
    Stream #1:0(und): Audio: aac (LC) (mp4a / 0x6134706D), 44100 Hz, stereo, fltp, 0 kb/s (default)
    Metadata:
      handler_name    : SoundHandler
Stream mapping:
  Stream #0:0 -> #0:0 (h264 (native) -> h264 (libx264))
  Stream #1:0 -> #0:1 (copy)
Press [q] to stop, [?] for help
[libx264 @ 000001bdab07c700] using SAR=1/1
[libx264 @ 000001bdab07c700] using cpu capabilities: MMX2 SSE2Fast SSSE3 SSE4.2 AVX FMA3 BMI2 AVX2
[libx264 @ 000001bdab07c700] profile High, level 4.0, 4:2:0, 8-bit
[libx264 @ 000001bdab07c700] 264 - core 160 - H.264/MPEG-4 AVC codec - Copyleft 2003-2020 - http://www.videolan.org/x264.html - options: cabac=1 ref=3 deblock=1:0:0 analyse=0x3:0x113 me=hex subme=7 psy=1 psy_rd=1.00:0.00 mixed_ref=1 me_range=16 chroma_me=1 trellis=1 8x8dct=1 cqm=0 deadzone=21,11 fast_pskip=1 chroma_qp_offset=-2 threads=18 lookahead_threads=3 sliced_threads=0 nr=0 decimate=1 interlaced=0 bluray_compat=0 constrained_intra=0 bframes=3 b_pyramid=2 b_adapt=1 b_bias=0 direct=1 weightb=1 open_gop=0 weightp=2 keyint=250 keyint_min=25 scenecut=40 intra_refresh=0 rc_lookahead=40 rc=crf mbtree=1 crf=23.0 qcomp=0.60 qpmin=0 qpmax=69 qpstep=4 ip_ratio=1.40 aq=1:1.00
Output #0, mp4, to 'C:/Users/bang/Desktop/Linux文本处理器sed/6-5-sed中的编辑命令详解(中).mp4':
  Metadata:
    major_brand     : iso5
    minor_version   : 1
    compatible_brands: avc1iso5dsmsmsixdash
    description     : Packed by Bilibili XCoder v2.0.2
    encoder         : Lavf58.45.100
    Stream #0:0(und): Video: h264 (libx264) (avc1 / 0x31637661), yuv420p, 1920x1080 [SAR 1:1 DAR 16:9], q=-1--1, 30 fps, 15360 tbn, 30 tbc (default)
    Metadata:
      handler_name    : VideoHandler
      encoder         : Lavc58.91.100 libx264
    Side data:
      cpb: bitrate max/min/avg: 0/0/0 buffer size: 0 vbv_delay: N/A
    Stream #0:1(und): Audio: aac (LC) (mp4a / 0x6134706D), 44100 Hz, stereo, fltp, 0 kb/s (default)
    Metadata:
      handler_name    : SoundHandler
frame=   76 fps=0.0 q=29.0 size=       0kB time=00:00:00.37 bitrate=   1.0kbits/s speed=0.741x    frame=  144 fps=137 q=29.0 size=     512kB time=00:00:02.63 bitrate=1592.9kbits/s speed= 2.5x    frame=  204 fps=130 q=29.0 size=    1024kB time=00:00:04.64 bitrate=1806.6kbits/s speed=2.95x    frame=  269 fps=130 q=29.0 size=    1280kB time=00:00:06.80 bitrate=1541.4kbits/s speed=3.28x    frame=  333 fps=129 q=29.0 size=    1792kB time=00:00:08.93 bitrate=1642.2kbits/s speed=3.47x    frame=  397 fps=129 q=29.0 size=    2048kB time=00:00:11.07 bitrate=1514.8kbits/s speed=3.59x    frame=  457 fps=128 q=29.0 size=    2560kB time=00:00:13.07 bitrate=1604.3kbits/s speed=3.65x    frame=  521 fps=127 q=29.0 size=    3072kB time=00:00:15.20 bitrate=1654.7kbits/s speed=3.72x    frame=  579 fps=125 q=29.0 size=    3328kB time=00:00:17.13 bitrate=1591.0kbits/s speed=3.69x    frame=  643 fps=125 q=29.0 size=    3840kB time=00:00:19.27 bitrate=1632.3kbits/s speed=3.74x    frame=  699 fps=123 q=29.0 size=    4096kB time=00:00:21.13 bitrate=1587.8kbits/s speed=3.72x    frame=  768 fps=123 q=29.0 size=    4608kB time=00:00:23.43 bitrate=1610.9kbits/s speed=3.75x    frame=  844 fps=125 q=29.0 size=    4864kB time=00:00:25.96 bitrate=1534.5kbits/s speed=3.84x    frame=  911 fps=125 q=29.0 size=    5376kB time=00:00:28.21 bitrate=1561.1kbits/s speed=3.88x    frame=  973 fps=125 q=29.0 size=    5632kB time=00:00:30.27 bitrate=1523.8kbits/s speed=3.89x    frame= 1038 fps=125 q=29.0 size=    5888kB time=00:00:32.43 bitrate=1487.0kbits/s speed=3.91x    frame= 1095 fps=125 q=29.0 size=    6400kB time=00:00:34.34 bitrate=1526.7kbits/s speed=3.91x    frame= 1166 fps=125 q=29.0 size=    6656kB time=00:00:36.71 bitrate=1485.3kbits/s speed=3.95x    frame= 1227 fps=124 q=29.0 size=    7168kB time=00:00:38.73 bitrate=1516.0kbits/s speed=3.93x    frame= 1284 fps=124 q=29.0 size=    7680kB time=00:00:40.63 bitrate=1548.3kbits/s speed=3.92x    frame= 1339 fps=123 q=29.0 size=    8192kB time=00:00:42.46 bitrate=1580.2kbits/s speed=3.91x    frame= 1392 fps=121 q=29.0 size=    8448kB time=00:00:44.23 bitrate=1564.6kbits/s speed=3.85x    frame= 1447 fps=121 q=29.0 size=    8704kB time=00:00:46.06 bitrate=1547.8kbits/s speed=3.84x    frame= 1500 fps=120 q=29.0 size=    9216kB time=00:00:47.83 bitrate=1578.4kbits/s speed=3.83x    frame= 1553 fps=120 q=29.0 size=    9472kB time=00:00:49.60 bitrate=1564.4kbits/s speed=3.82x    frame= 1620 fps=120 q=29.0 size=    9984kB time=00:00:51.83 bitrate=1577.9kbits/s speed=3.83x    frame= 1691 fps=121 q=29.0 size=   10496kB time=00:00:54.20 bitrate=1586.4kbits/s speed=3.87x    frame= 1749 fps=120 q=29.0 size=   10752kB time=00:00:56.14 bitrate=1568.8kbits/s speed=3.87x    frame= 1802 fps=120 q=29.0 size=   11008kB time=00:00:57.91 bitrate=1557.2kbits/s speed=3.85x    frame= 1867 fps=120 q=29.0 size=   11520kB time=00:01:00.06 bitrate=1571.0kbits/s speed=3.86x    frame= 1929 fps=120 q=29.0 size=   12032kB time=00:01:02.13 bitrate=1586.3kbits/s speed=3.87x    frame= 1992 fps=120 q=29.0 size=   12288kB time=00:01:04.23 bitrate=1567.2kbits/s speed=3.86x    frame= 2055 fps=120 q=29.0 size=   12800kB time=00:01:06.33 bitrate=1580.6kbits/s speed=3.87x    frame= 2116 fps=120 q=29.0 size=   13312kB time=00:01:08.36 bitrate=1595.1kbits/s speed=3.87x    frame= 2175 fps=120 q=29.0 size=   13824kB time=00:01:10.33 bitrate=1610.1kbits/s speed=3.86x    frame= 2232 fps=119 q=29.0 size=   14080kB time=00:01:12.23 bitrate=1596.7kbits/s speed=3.85x    frame= 2294 fps=119 q=29.0 size=   14592kB time=00:01:14.30 bitrate=1608.8kbits/s speed=3.86x    frame= 2352 fps=119 q=29.0 size=   15104kB time=00:01:16.23 bitrate=1623.1kbits/s speed=3.84x    frame= 2409 fps=118 q=29.0 size=   15360kB time=00:01:18.13 bitrate=1610.4kbits/s speed=3.84x    frame= 2463 fps=118 q=29.0 size=   15872kB time=00:01:19.94 bitrate=1626.4kbits/s speed=3.84x    frame= 2515 fps=118 q=29.0 size=   16128kB time=00:01:21.66 bitrate=1617.8kbits/s speed=3.83x    frame= 2568 fps=117 q=29.0 size=   16640kB time=00:01:23.43 bitrate=1633.8kbits/s speed=3.81x    frame= 2627 fps=117 q=29.0 size=   16896kB time=00:01:25.40 bitrate=1620.7kbits/s speed=3.82x    frame= 2676 fps=117 q=29.0 size=   17152kB time=00:01:27.03 bitrate=1614.4kbits/s speed=3.79x    frame= 2738 fps=116 q=29.0 size=   17664kB time=00:01:29.10 bitrate=1624.1kbits/s speed=3.78x    frame= 2798 fps=116 q=29.0 size=   18688kB time=00:01:31.10 bitrate=1680.5kbits/s speed=3.78x    frame= 2863 fps=116 q=29.0 size=   19200kB time=00:01:33.27 bitrate=1686.3kbits/s speed=3.79x    frame= 2941 fps=117 q=29.0 size=   19456kB time=00:01:35.87 bitrate=1662.4kbits/s speed=3.82x    frame= 3025 fps=118 q=29.0 size=   19712kB time=00:01:38.66 bitrate=1636.6kbits/s speed=3.85x    frame= 3104 fps=119 q=29.0 size=   19968kB time=00:01:41.30 bitrate=1614.7kbits/s speed=3.88x    frame= 3177 fps=119 q=29.0 size=   20224kB time=00:01:43.74 bitrate=1596.9kbits/s speed= 3.9x    frame= 3228 fps=119 q=29.0 size=   20480kB time=00:01:45.44 bitrate=1591.1kbits/s speed=3.89x    frame= 3278 fps=119 q=29.0 size=   20736kB time=00:01:47.10 bitrate=1586.1kbits/s speed=3.88x    frame= 3336 fps=118 q=29.0 size=   21248kB time=00:01:49.04 bitrate=1596.3kbits/s speed=3.87x    frame= 3398 fps=118 q=29.0 size=   21760kB time=00:01:51.10 bitrate=1604.4kbits/s speed=3.87x    frame= 3458 fps=118 q=29.0 size=   22016kB time=00:01:53.10 bitrate=1594.6kbits/s speed=3.87x    frame= 3518 fps=118 q=29.0 size=   22528kB time=00:01:55.10 bitrate=1603.4kbits/s speed=3.86x    frame= 3578 fps=118 q=29.0 size=   23040kB time=00:01:57.10 bitrate=1611.8kbits/s speed=3.86x    frame= 3637 fps=118 q=29.0 size=   23296kB time=00:01:59.07 bitrate=1602.7kbits/s speed=3.86x    frame= 3696 fps=118 q=29.0 size=   23808kB time=00:02:01.04 bitrate=1611.3kbits/s speed=3.86x    frame= 3758 fps=118 q=29.0 size=   24064kB time=00:02:03.11 bitrate=1601.2kbits/s speed=3.85x    frame= 3818 fps=118 q=29.0 size=   24832kB time=00:02:05.10 bitrate=1626.0kbits/s speed=3.85x    frame= 3876 fps=117 q=29.0 size=   25088kB time=00:02:07.03 bitrate=1617.8kbits/s speed=3.85x    frame= 3937 fps=118 q=29.0 size=   25344kB time=00:02:09.07 bitrate=1608.5kbits/s speed=3.85x    frame= 4008 fps=118 q=29.0 size=   25856kB time=00:02:11.43 bitrate=1611.6kbits/s speed=3.87x    frame= 4092 fps=118 q=29.0 size=   26112kB time=00:02:14.23 bitrate=1593.6kbits/s speed=3.89x    frame= 4163 fps=119 q=29.0 size=   26368kB time=00:02:16.60 bitrate=1581.3kbits/s speed= 3.9x    frame= 4212 fps=118 q=29.0 size=   26624kB time=00:02:18.23 bitrate=1577.8kbits/s speed=3.89x    frame= 4273 fps=118 q=29.0 size=   26880kB time=00:02:20.27 bitrate=1569.8kbits/s speed=3.89x    frame= 4333 fps=118 q=29.0 size=   26880kB time=00:02:22.26 bitrate=1547.8kbits/s speed=3.89x    frame= 4398 fps=119 q=29.0 size=   27136kB time=00:02:24.43 bitrate=1539.1kbits/s speed=3.89x    frame= 4466 fps=119 q=29.0 size=   27392kB time=00:02:26.70 bitrate=1529.6kbits/s speed= 3.9x    frame= 4532 fps=119 q=29.0 size=   27648kB time=00:02:28.90 bitrate=1521.0kbits/s speed= 3.9x    frame= 4584 fps=118 q=29.0 size=   27904kB time=00:02:30.63 bitrate=1517.5kbits/s speed=3.89x    frame= 4643 fps=118 q=29.0 size=   28160kB time=00:02:32.60 bitrate=1511.7kbits/s speed=3.89x    frame= 4700 fps=118 q=29.0 size=   28160kB time=00:02:34.50 bitrate=1493.1kbits/s speed=3.89x    frame= 4755 fps=118 q=29.0 size=   28416kB time=00:02:36.33 bitrate=1489.0kbits/s speed=3.89x    frame= 4814 fps=118 q=29.0 size=   28672kB time=00:02:38.30 bitrate=1483.8kbits/s speed=3.88x    frame= 4875 fps=118 q=29.0 size=   28928kB time=00:02:40.33 bitrate=1478.0kbits/s speed=3.89x    frame= 4933 fps=118 q=29.0 size=   29184kB time=00:02:42.26 bitrate=1473.4kbits/s speed=3.88x    frame= 4993 fps=118 q=29.0 size=   29440kB time=00:02:44.26 bitrate=1468.2kbits/s speed=3.88x    frame= 5048 fps=118 q=29.0 size=   29696kB time=00:02:46.10 bitrate=1464.6kbits/s speed=3.88x    frame= 5100 fps=118 q=29.0 size=   29952kB time=00:02:47.83 bitrate=1462.0kbits/s speed=3.87x    frame= 5164 fps=118 q=29.0 size=   30208kB time=00:02:49.96 bitrate=1455.9kbits/s speed=3.88x    frame= 5223 fps=118 q=29.0 size=   30464kB time=00:02:51.94 bitrate=1451.4kbits/s speed=3.88x    frame= 5281 fps=118 q=29.0 size=   30720kB time=00:02:53.87 bitrate=1447.4kbits/s speed=3.88x    frame= 5340 fps=118 q=29.0 size=   30976kB time=00:02:55.84 bitrate=1443.1kbits/s speed=3.87x    frame= 5394 fps=117 q=29.0 size=   30976kB time=00:02:57.63 bitrate=1428.5kbits/s speed=3.87x    frame= 5460 fps=118 q=29.0 size=   31232kB time=00:02:59.83 bitrate=1422.7kbits/s speed=3.87x    frame= 5518 fps=118 q=29.0 size=   31488kB time=00:03:01.76 bitrate=1419.1kbits/s speed=3.87x    frame= 5579 fps=118 q=29.0 size=   31744kB time=00:03:03.80 bitrate=1414.8kbits/s speed=3.87x    frame= 5643 fps=118 q=29.0 size=   32000kB time=00:03:05.94 bitrate=1409.8kbits/s speed=3.87x    frame= 5703 fps=118 q=29.0 size=   32256kB time=00:03:07.94 bitrate=1406.0kbits/s speed=3.88x    frame= 5761 fps=118 q=29.0 size=   32512kB time=00:03:09.86 bitrate=1402.7kbits/s speed=3.87x    frame= 5816 fps=117 q=29.0 size=   32768kB time=00:03:11.70 bitrate=1400.3kbits/s speed=3.87x    frame= 5874 fps=117 q=29.0 size=   33024kB time=00:03:13.63 bitrate=1397.1kbits/s speed=3.87x    frame= 5924 fps=117 q=29.0 size=   33024kB time=00:03:15.30 bitrate=1385.2kbits/s speed=3.87x    frame= 5987 fps=117 q=29.0 size=   33280kB time=00:03:17.40 bitrate=1381.1kbits/s speed=3.87x    frame= 6041 fps=117 q=29.0 size=   33536kB time=00:03:19.20 bitrate=1379.1kbits/s speed=3.87x    frame= 6095 fps=117 q=29.0 size=   33792kB time=00:03:21.00 bitrate=1377.2kbits/s speed=3.86x    frame= 6157 fps=117 q=29.0 size=   33792kB time=00:03:23.06 bitrate=1363.2kbits/s speed=3.86x    frame= 6220 fps=117 q=29.0 size=   34048kB time=00:03:25.17 bitrate=1359.5kbits/s speed=3.86x    frame= 6274 fps=117 q=29.0 size=   34304kB time=00:03:26.96 bitrate=1357.8kbits/s speed=3.86x    frame= 6331 fps=117 q=29.0 size=   34560kB time=00:03:28.86 bitrate=1355.5kbits/s speed=3.86x    frame= 6388 fps=117 q=29.0 size=   34816kB time=00:03:30.76 bitrate=1353.2kbits/s speed=3.85x    frame= 6447 fps=117 q=29.0 size=   35072kB time=00:03:32.74 bitrate=1350.5kbits/s speed=3.85x    frame= 6505 fps=117 q=29.0 size=   35328kB time=00:03:34.66 bitrate=1348.2kbits/s speed=3.85x    frame= 6565 fps=117 q=29.0 size=   35584kB time=00:03:36.66 bitrate=1345.4kbits/s speed=3.85x    frame= 6625 fps=116 q=29.0 size=   35840kB time=00:03:38.66 bitrate=1342.7kbits/s speed=3.84x    frame= 6684 fps=116 q=29.0 size=   36096kB time=00:03:40.63 bitrate=1340.2kbits/s speed=3.84x    frame= 6744 fps=116 q=29.0 size=   36352kB time=00:03:42.63 bitrate=1337.6kbits/s speed=3.83x    frame= 6803 fps=116 q=29.0 size=   36352kB time=00:03:44.60 bitrate=1325.9kbits/s speed=3.84x    frame= 6855 fps=116 q=29.0 size=   36608kB time=00:03:46.33 bitrate=1325.0kbits/s speed=3.83x    frame= 6911 fps=116 q=29.0 size=   36864kB time=00:03:48.20 bitrate=1323.3kbits/s speed=3.83x    frame= 6964 fps=116 q=29.0 size=   37120kB time=00:03:49.97 bitrate=1322.3kbits/s speed=3.83x    frame= 7012 fps=116 q=29.0 size=   37376kB time=00:03:51.57 bitrate=1322.2kbits/s speed=3.82x    frame= 7080 fps=116 q=29.0 size=   37632kB time=00:03:53.83 bitrate=1318.4kbits/s speed=3.82x    frame= 7148 fps=116 q=29.0 size=   38144kB time=00:03:56.10 bitrate=1323.5kbits/s speed=3.83x    frame= 7218 fps=116 q=29.0 size=   38144kB time=00:03:58.44 bitrate=1310.5kbits/s speed=3.83x    frame= 7287 fps=116 q=29.0 size=   38400kB time=00:04:00.74 bitrate=1306.7kbits/s speed=3.84x    frame= 7349 fps=116 q=29.0 size=   38912kB time=00:04:02.81 bitrate=1312.8kbits/s speed=3.84x    frame= 7420 fps=116 q=29.0 size=   39168kB time=00:04:05.17 bitrate=1308.7kbits/s speed=3.85x    frame= 7494 fps=117 q=29.0 size=   39424kB time=00:04:07.64 bitrate=1304.2kbits/s speed=3.86x    frame= 7562 fps=117 q=29.0 size=   39936kB time=00:04:09.90 bitrate=1309.1kbits/s speed=3.86x    frame= 7642 fps=117 q=29.0 size=   40192kB time=00:04:12.56 bitrate=1303.6kbits/s speed=3.87x    frame= 7729 fps=117 q=29.0 size=   40192kB time=00:04:15.46 bitrate=1288.8kbits/s speed=3.88x    frame= 7818 fps=118 q=29.0 size=   40448kB time=00:04:18.43 bitrate=1282.1kbits/s speed= 3.9x    frame= 7900 fps=118 q=29.0 size=   40704kB time=00:04:21.17 bitrate=1276.7kbits/s speed=3.91x    frame= 7976 fps=119 q=29.0 size=   40960kB time=00:04:23.70 bitrate=1272.4kbits/s speed=3.92x    frame= 8046 fps=119 q=29.0 size=   41216kB time=00:04:26.03 bitrate=1269.2kbits/s speed=3.92x    frame= 8116 fps=119 q=29.0 size=   41472kB time=00:04:28.37 bitrate=1265.9kbits/s speed=3.93x    frame= 8184 fps=119 q=29.0 size=   41728kB time=00:04:30.63 bitrate=1263.1kbits/s speed=3.93x    frame= 8254 fps=119 q=29.0 size=   41984kB time=00:04:32.97 bitrate=1260.0kbits/s speed=3.93x    frame= 8306 fps=119 q=29.0 size=   42240kB time=00:04:34.70 bitrate=1259.7kbits/s speed=3.93x    frame= 8357 fps=119 q=29.0 size=   42496kB time=00:04:36.40 bitrate=1259.5kbits/s speed=3.92x    frame= 8413 fps=118 q=29.0 size=   42752kB time=00:04:38.26 bitrate=1258.6kbits/s speed=3.92x    frame= 8474 fps=118 q=29.0 size=   43008kB time=00:04:40.31 bitrate=1256.9kbits/s speed=3.92x    frame= 8532 fps=118 q=29.0 size=   43264kB time=00:04:42.23 bitrate=1255.7kbits/s speed=3.92x    frame= 8590 fps=118 q=29.0 size=   43520kB time=00:04:44.16 bitrate=1254.6kbits/s speed=3.91x    frame= 8644 fps=118 q=29.0 size=   43776kB time=00:04:45.97 bitrate=1254.0kbits/s speed=3.91x    frame= 8704 fps=118 q=29.0 size=   44032kB time=00:04:47.97 bitrate=1252.6kbits/s speed=3.91x    frame= 8763 fps=118 q=29.0 size=   44032kB time=00:04:49.93 bitrate=1244.1kbits/s speed=3.91x    frame= 8821 fps=118 q=29.0 size=   44288kB time=00:04:51.87 bitrate=1243.0kbits/s speed=3.91x    frame= 8873 fps=118 q=29.0 size=   44544kB time=00:04:53.60 bitrate=1242.9kbits/s speed= 3.9x    frame= 8924 fps=118 q=29.0 size=   44800kB time=00:04:55.31 bitrate=1242.8kbits/s speed= 3.9x    frame= 8985 fps=118 q=29.0 size=   45056kB time=00:04:57.33 bitrate=1241.4kbits/s speed= 3.9x    frame= 9037 fps=118 q=29.0 size=   45312kB time=00:04:59.07 bitrate=1241.2kbits/s speed= 3.9x    frame= 9096 fps=118 q=29.0 size=   45568kB time=00:05:01.04 bitrate=1240.0kbits/s speed=3.89x    frame= 9150 fps=118 q=29.0 size=   45824kB time=00:05:02.83 bitrate=1239.6kbits/s speed=3.89x    frame= 9205 fps=118 q=29.0 size=   46080kB time=00:05:04.66 bitrate=1239.0kbits/s speed=3.89x    frame= 9264 fps=117 q=29.0 size=   46336kB time=00:05:06.64 bitrate=1237.9kbits/s speed=3.89x    frame= 9326 fps=117 q=29.0 size=   46592kB time=00:05:08.70 bitrate=1236.4kbits/s speed=3.89x    frame= 9376 fps=117 q=29.0 size=   47104kB time=00:05:10.36 bitrate=1243.3kbits/s speed=3.88x    frame= 9444 fps=117 q=29.0 size=   47360kB time=00:05:12.63 bitrate=1241.0kbits/s speed=3.89x    frame= 9504 fps=117 q=29.0 size=   48128kB time=00:05:14.63 bitrate=1253.1kbits/s speed=3.89x    frame= 9568 fps=118 q=29.0 size=   48384kB time=00:05:16.76 bitrate=1251.3kbits/s speed=3.89x    frame= 9643 fps=118 q=29.0 size=   48640kB time=00:05:19.27 bitrate=1248.0kbits/s speed= 3.9x    frame= 9710 fps=118 q=29.0 size=   48896kB time=00:05:21.50 bitrate=1245.9kbits/s speed= 3.9x    frame= 9792 fps=118 q=29.0 size=   49152kB time=00:05:24.24 bitrate=1241.8kbits/s speed=3.91x    frame= 9877 fps=118 q=29.0 size=   49408kB time=00:05:27.07 bitrate=1237.5kbits/s speed=3.92x    frame= 9961 fps=119 q=29.0 size=   49408kB time=00:05:29.86 bitrate=1227.0kbits/s speed=3.93x    frame=10047 fps=119 q=29.0 size=   49664kB time=00:05:32.74 bitrate=1222.7kbits/s speed=3.94x    frame=10132 fps=119 q=29.0 size=   49920kB time=00:05:35.57 bitrate=1218.6kbits/s speed=3.95x    frame=10213 fps=120 q=29.0 size=   49920kB time=00:05:38.26 bitrate=1208.9kbits/s speed=3.96x    frame=10280 fps=120 q=29.0 size=   50432kB time=00:05:40.50 bitrate=1213.3kbits/s speed=3.96x    frame=10350 fps=120 q=29.0 size=   50688kB time=00:05:42.84 bitrate=1211.2kbits/s speed=3.96x    frame=10406 fps=120 q=29.0 size=   51200kB time=00:05:44.70 bitrate=1216.8kbits/s speed=3.96x    frame=10470 fps=120 q=29.0 size=   51712kB time=00:05:46.83 bitrate=1221.4kbits/s speed=3.96x    frame=10538 fps=120 q=29.0 size=   51968kB time=00:05:49.11 bitrate=1219.4kbits/s speed=3.97x    frame=10605 fps=120 q=29.0 size=   52224kB time=00:05:51.34 bitrate=1217.7kbits/s speed=3.97x    frame=10659 fps=120 q=29.0 size=   52992kB time=00:05:53.13 bitrate=1229.3kbits/s speed=3.96x    frame=10729 fps=120 q=29.0 size=   53248kB time=00:05:55.47 bitrate=1227.1kbits/s speed=3.97x    frame=10792 fps=120 q=29.0 size=   54016kB time=00:05:57.56 bitrate=1237.5kbits/s speed=3.97x    frame=10863 fps=120 q=29.0 size=   54272kB time=00:05:59.93 bitrate=1235.2kbits/s speed=3.97x    frame=10935 fps=120 q=29.0 size=   54528kB time=00:06:02.33 bitrate=1232.8kbits/s speed=3.98x    frame=11016 fps=120 q=29.0 size=   54784kB time=00:06:05.04 bitrate=1229.4kbits/s speed=3.98x    frame=11087 fps=120 q=29.0 size=   55040kB time=00:06:07.40 bitrate=1227.2kbits/s speed=3.99x    frame=11127 fps=120 q=29.0 size=   55552kB time=00:06:08.73 bitrate=1234.2kbits/s speed=3.98x    frame=11171 fps=120 q=29.0 size=   56576kB time=00:06:10.20 bitrate=1251.9kbits/s speed=3.97x    frame=11222 fps=120 q=29.0 size=   57088kB time=00:06:11.90 bitrate=1257.5kbits/s speed=3.97x    frame=11254 fps=119 q=29.0 size=   58112kB time=00:06:12.96 bitrate=1276.4kbits/s speed=3.96x    frame=11296 fps=119 q=29.0 size=   58880kB time=00:06:14.37 bitrate=1288.4kbits/s speed=3.95x    frame=11336 fps=119 q=29.0 size=   59648kB time=00:06:15.70 bitrate=1300.6kbits/s speed=3.95x    frame=11370 fps=119 q=29.0 size=   60672kB time=00:06:16.83 bitrate=1318.9kbits/s speed=3.94x    frame=11426 fps=119 q=29.0 size=   61440kB time=00:06:18.70 bitrate=1329.1kbits/s speed=3.93x    frame=11496 fps=119 q=29.0 size=   61952kB time=00:06:21.03 bitrate=1331.9kbits/s speed=3.94x    frame=11547 fps=119 q=29.0 size=   62208kB time=00:06:22.73 bitrate=1331.5kbits/s speed=3.93x    frame=11578 fps=118 q=29.0 size=   62976kB time=00:06:23.77 bitrate=1344.3kbits/s speed=3.93x    frame=11603 fps=118 q=29.0 size=   64256kB time=00:06:24.60 bitrate=1368.7kbits/s speed=3.91x    frame=11634 fps=118 q=29.0 size=   65280kB time=00:06:25.63 bitrate=1386.7kbits/s speed= 3.9x    frame=11673 fps=118 q=29.0 size=   66304kB time=00:06:26.93 bitrate=1403.8kbits/s speed= 3.9x    frame=11714 fps=117 q=29.0 size=   67328kB time=00:06:28.30 bitrate=1420.4kbits/s speed=3.89x    frame=11800 fps=118 q=29.0 size=   67584kB time=00:06:31.16 bitrate=1415.4kbits/s speed= 3.9x    frame=11890 fps=118 q=29.0 size=   67840kB time=00:06:34.16 bitrate=1409.9kbits/s speed=3.91x    frame=11978 fps=118 q=29.0 size=   67840kB time=00:06:37.10 bitrate=1399.5kbits/s speed=3.92x    frame=12072 fps=119 q=29.0 size=   68096kB time=00:06:40.24 bitrate=1393.8kbits/s speed=3.93x    frame=12157 fps=119 q=29.0 size=   68352kB time=00:06:43.07 bitrate=1389.2kbits/s speed=3.94x    frame=12244 fps=119 q=29.0 size=   68608kB time=00:06:45.97 bitrate=1384.4kbits/s speed=3.95x    frame=12331 fps=119 q=29.0 size=   68864kB time=00:06:48.87 bitrate=1379.7kbits/s speed=3.96x    frame=12413 fps=120 q=29.0 size=   69120kB time=00:06:51.60 bitrate=1375.7kbits/s speed=3.96x    frame=12502 fps=120 q=29.0 size=   69120kB time=00:06:54.56 bitrate=1365.8kbits/s speed=3.97x    frame=12583 fps=120 q=29.0 size=   69376kB time=00:06:57.26 bitrate=1362.0kbits/s speed=3.98x    frame=12671 fps=120 q=29.0 size=   69632kB time=00:07:00.21 bitrate=1357.5kbits/s speed=3.99x    frame=12752 fps=120 q=29.0 size=   69888kB time=00:07:02.90 bitrate=1353.8kbits/s speed=3.99x    frame=12834 fps=121 q=29.0 size=   70144kB time=00:07:05.64 bitrate=1350.0kbits/s speed=   4x    frame=12909 fps=121 q=29.0 size=   70400kB time=00:07:08.13 bitrate=1347.1kbits/s speed=4.01x    frame=12975 fps=121 q=29.0 size=   70656kB time=00:07:10.33 bitrate=1345.0kbits/s speed=4.01x    frame=13055 fps=121 q=29.0 size=   70912kB time=00:07:13.00 bitrate=1341.6kbits/s speed=4.01x    frame=13130 fps=121 q=29.0 size=   71168kB time=00:07:15.51 bitrate=1338.7kbits/s speed=4.02x    frame=13210 fps=121 q=29.0 size=   71424kB time=00:07:18.16 bitrate=1335.3kbits/s speed=4.02x    frame=13287 fps=121 q=29.0 size=   71680kB time=00:07:20.73 bitrate=1332.3kbits/s speed=4.03x    frame=13356 fps=121 q=29.0 size=   71936kB time=00:07:23.03 bitrate=1330.1kbits/s speed=4.03x    frame=13425 fps=122 q=29.0 size=   72448kB time=00:07:25.33 bitrate=1332.7kbits/s speed=4.03x    frame=13508 fps=122 q=29.0 size=   72704kB time=00:07:28.10 bitrate=1329.1kbits/s speed=4.04x    frame=13587 fps=122 q=29.0 size=   72960kB time=00:07:30.74 bitrate=1326.0kbits/s speed=4.04x    frame=13665 fps=122 q=29.0 size=   73216kB time=00:07:33.34 bitrate=1323.0kbits/s speed=4.05x    frame=13744 fps=122 q=29.0 size=   73472kB time=00:07:35.96 bitrate=1320.0kbits/s speed=4.05x    frame=13826 fps=122 q=29.0 size=   73472kB time=00:07:38.70 bitrate=1312.1kbits/s speed=4.06x    frame=13901 fps=122 q=29.0 size=   73728kB time=00:07:41.20 bitrate=1309.6kbits/s speed=4.06x    frame=13976 fps=123 q=29.0 size=   73984kB time=00:07:43.70 bitrate=1307.0kbits/s speed=4.07x    frame=14040 fps=123 q=29.0 size=   74496kB time=00:07:45.83 bitrate=1310.1kbits/s speed=4.07x    frame=14114 fps=123 q=29.0 size=   74752kB time=00:07:48.30 bitrate=1307.6kbits/s speed=4.07x    frame=14188 fps=123 q=29.0 size=   75008kB time=00:07:50.76 bitrate=1305.2kbits/s speed=4.07x    frame=14272 fps=123 q=29.0 size=   75264kB time=00:07:53.57 bitrate=1301.9kbits/s speed=4.08x    frame=14347 fps=123 q=29.0 size=   75520kB time=00:07:56.07 bitrate=1299.5kbits/s speed=4.08x    frame=14421 fps=123 q=26.0 size=   75520kB time=00:07:58.53 bitrate=1292.8kbits/s speed=4.09x    frame=14496 fps=123 q=29.0 size=   76032kB time=00:08:01.03 bitrate=1294.8kbits/s speed=4.09x    frame=14577 fps=123 q=29.0 size=   76288kB time=00:08:03.74 bitrate=1291.9kbits/s speed= 4.1x    frame=14656 fps=124 q=29.0 size=   76544kB time=00:08:06.36 bitrate=1289.3kbits/s speed= 4.1x    frame=14739 fps=124 q=29.0 size=   76800kB time=00:08:09.13 bitrate=1286.2kbits/s speed=4.11x    frame=14815 fps=124 q=29.0 size=   77056kB time=00:08:11.66 bitrate=1283.9kbits/s speed=4.11x    frame=14897 fps=124 q=29.0 size=   77312kB time=00:08:14.40 bitrate=1281.0kbits/s speed=4.12x    frame=14972 fps=124 q=29.0 size=   77568kB time=00:08:16.90 bitrate=1278.8kbits/s speed=4.12x    frame=15058 fps=124 q=29.0 size=   77824kB time=00:08:19.76 bitrate=1275.7kbits/s speed=4.13x    frame=15155 fps=125 q=29.0 size=   78080kB time=00:08:23.00 bitrate=1271.6kbits/s speed=4.14x    frame=15253 fps=125 q=29.0 size=   78336kB time=00:08:26.26 bitrate=1267.6kbits/s speed=4.14x    frame=15345 fps=125 q=29.0 size=   78592kB time=00:08:29.33 bitrate=1264.1kbits/s speed=4.15x    frame=15432 fps=125 q=29.0 size=   78592kB time=00:08:32.23 bitrate=1256.9kbits/s speed=4.16x    frame=15516 fps=125 q=29.0 size=   79104kB time=00:08:35.04 bitrate=1258.2kbits/s speed=4.16x    frame=15603 fps=126 q=29.0 size=   79104kB time=00:08:37.94 bitrate=1251.1kbits/s speed=4.17x    frame=15700 fps=126 q=29.0 size=   79360kB time=00:08:41.17 bitrate=1247.4kbits/s speed=4.18x    frame=15796 fps=126 q=29.0 size=   79616kB time=00:08:44.37 bitrate=1243.8kbits/s speed=4.19x    frame=15899 fps=126 q=29.0 size=   79616kB time=00:08:47.81 bitrate=1235.7kbits/s speed= 4.2x    frame=15988 fps=127 q=29.0 size=   79872kB time=00:08:50.76 bitrate=1232.8kbits/s speed= 4.2x    frame=16085 fps=127 q=29.0 size=   80128kB time=00:08:54.01 bitrate=1229.2kbits/s speed=4.21x    frame=16184 fps=127 q=29.0 size=   80128kB time=00:08:57.30 bitrate=1221.7kbits/s speed=4.22x    frame=16266 fps=127 q=29.0 size=   80384kB time=00:09:00.03 bitrate=1219.4kbits/s speed=4.23x    frame=16327 fps=127 q=29.0 size=   80640kB time=00:09:02.06 bitrate=1218.7kbits/s speed=4.23x    frame=16383 fps=127 q=29.0 size=   80640kB time=00:09:03.93 bitrate=1214.5kbits/s speed=4.22x    frame=16436 fps=127 q=29.0 size=   80896kB time=00:09:05.70 bitrate=1214.4kbits/s speed=4.22x    frame=16502 fps=127 q=29.0 size=   81152kB time=00:09:07.90 bitrate=1213.4kbits/s speed=4.22x    frame=16561 fps=127 q=29.0 size=   81408kB time=00:09:09.87 bitrate=1212.8kbits/s speed=4.22x    frame=16611 fps=127 q=29.0 size=   81664kB time=00:09:11.54 bitrate=1212.9kbits/s speed=4.21x    frame=16675 fps=127 q=29.0 size=   81920kB time=00:09:13.67 bitrate=1212.1kbits/s speed=4.21x    frame=16719 fps=127 q=29.0 size=   82176kB time=00:09:15.14 bitrate=1212.6kbits/s speed=4.21x    frame=16779 fps=127 q=29.0 size=   82432kB time=00:09:17.13 bitrate=1212.1kbits/s speed=4.21x    frame=16832 fps=127 q=29.0 size=   82688kB time=00:09:18.90 bitrate=1212.0kbits/s speed= 4.2x    frame=16885 fps=127 q=29.0 size=   82944kB time=00:09:20.66 bitrate=1211.9kbits/s speed= 4.2x    frame=16941 fps=126 q=29.0 size=   83456kB time=00:09:22.53 bitrate=1215.3kbits/s speed= 4.2x    frame=16994 fps=126 q=29.0 size=   83712kB time=00:09:24.30 bitrate=1215.3kbits/s speed= 4.2x    frame=17059 fps=126 q=29.0 size=   84480kB time=00:09:26.47 bitrate=1221.7kbits/s speed= 4.2x    frame=17114 fps=126 q=29.0 size=   84480kB time=00:09:28.30 bitrate=1217.8kbits/s speed=4.19x    frame=17169 fps=126 q=29.0 size=   84992kB time=00:09:30.14 bitrate=1221.2kbits/s speed=4.19x    frame=17231 fps=126 q=29.0 size=   85248kB time=00:09:32.20 bitrate=1220.4kbits/s speed=4.19x    frame=17268 fps=126 q=29.0 size=   85760kB time=00:09:33.43 bitrate=1225.1kbits/s speed=4.18x    frame=17330 fps=126 q=29.0 size=   86016kB time=00:09:35.50 bitrate=1224.4kbits/s speed=4.18x    frame=17388 fps=126 q=29.0 size=   86272kB time=00:09:37.43 bitrate=1223.9kbits/s speed=4.18x    frame=17442 fps=126 q=29.0 size=   86528kB time=00:09:39.24 bitrate=1223.7kbits/s speed=4.18x    frame=17502 fps=126 q=29.0 size=   86528kB time=00:09:41.24 bitrate=1219.5kbits/s speed=4.18x    frame=17556 fps=126 q=29.0 size=   86784kB time=00:09:43.03 bitrate=1219.4kbits/s speed=4.17x    frame=17612 fps=126 q=29.0 size=   87040kB time=00:09:44.91 bitrate=1219.0kbits/s speed=4.17x    frame=17666 fps=125 q=29.0 size=   87296kB time=00:09:46.70 bitrate=1218.9kbits/s speed=4.17x    frame=17724 fps=125 q=29.0 size=   87552kB time=00:09:48.63 bitrate=1218.5kbits/s speed=4.17x    frame=17787 fps=125 q=29.0 size=   87808kB time=00:09:50.73 bitrate=1217.7kbits/s speed=4.17x    frame=17839 fps=125 q=29.0 size=   88064kB time=00:09:52.46 bitrate=1217.7kbits/s speed=4.16x    frame=17896 fps=125 q=29.0 size=   88064kB time=00:09:54.36 bitrate=1213.8kbits/s speed=4.16x    frame=17953 fps=125 q=29.0 size=   88320kB time=00:09:56.26 bitrate=1213.4kbits/s speed=4.16x    frame=18011 fps=125 q=29.0 size=   88576kB time=00:09:58.20 bitrate=1213.0kbits/s speed=4.16x    frame=18071 fps=125 q=29.0 size=   88832kB time=00:10:00.21 bitrate=1212.4kbits/s speed=4.16x    frame=18133 fps=125 q=29.0 size=   89088kB time=00:10:02.27 bitrate=1211.7kbits/s speed=4.16x    frame=18193 fps=125 q=29.0 size=   89344kB time=00:10:04.27 bitrate=1211.2kbits/s speed=4.15x    frame=18248 fps=125 q=29.0 size=   89600kB time=00:10:06.11 bitrate=1211.0kbits/s speed=4.15x    frame=18302 fps=125 q=29.0 size=   89856kB time=00:10:07.90 bitrate=1210.9kbits/s speed=4.15x    frame=18351 fps=125 q=29.0 size=   90112kB time=00:10:09.53 bitrate=1211.1kbits/s speed=4.15x    frame=18412 fps=125 q=29.0 size=   90368kB time=00:10:11.56 bitrate=1210.5kbits/s speed=4.15x    frame=18467 fps=125 q=29.0 size=   90624kB time=00:10:13.40 bitrate=1210.3kbits/s speed=4.14x    frame=18521 fps=125 q=29.0 size=   90880kB time=00:10:15.21 bitrate=1210.1kbits/s speed=4.14x    frame=18582 fps=125 q=29.0 size=   91136kB time=00:10:17.23 bitrate=1209.6kbits/s speed=4.14x    frame=18638 fps=125 q=29.0 size=   91392kB time=00:10:19.10 bitrate=1209.3kbits/s speed=4.14x    frame=18697 fps=125 q=29.0 size=   91648kB time=00:10:21.06 bitrate=1208.9kbits/s speed=4.14x    frame=18757 fps=125 q=29.0 size=   92160kB time=00:10:23.06 bitrate=1211.7kbits/s speed=4.14x    frame=18807 fps=124 q=29.0 size=   93184kB time=00:10:24.73 bitrate=1221.9kbits/s speed=4.13x    frame=18874 fps=124 q=29.0 size=   93440kB time=00:10:26.96 bitrate=1220.9kbits/s speed=4.13x    frame=18924 fps=124 q=29.0 size=   93952kB time=00:10:28.63 bitrate=1224.3kbits/s speed=4.13x    frame=18989 fps=124 q=29.0 size=   94464kB time=00:10:30.80 bitrate=1226.8kbits/s speed=4.13x    frame=19056 fps=124 q=29.0 size=   94720kB time=00:10:33.04 bitrate=1225.7kbits/s speed=4.13x    frame=19112 fps=124 q=29.0 size=   94976kB time=00:10:34.90 bitrate=1225.5kbits/s speed=4.13x    frame=19192 fps=124 q=29.0 size=   95232kB time=00:10:37.57 bitrate=1223.6kbits/s speed=4.13x    frame=19267 fps=125 q=29.0 size=   95744kB time=00:10:40.06 bitrate=1225.4kbits/s speed=4.14x    frame=19336 fps=125 q=29.0 size=   96000kB time=00:10:42.37 bitrate=1224.2kbits/s speed=4.14x    frame=19413 fps=125 q=29.0 size=   96000kB time=00:10:44.93 bitrate=1219.4kbits/s speed=4.14x    frame=19486 fps=125 q=29.0 size=   96256kB time=00:10:47.37 bitrate=1218.0kbits/s speed=4.14x    frame=19561 fps=125 q=29.0 size=   96768kB time=00:10:49.87 bitrate=1219.8kbits/s speed=4.14x    frame=19632 fps=125 q=29.0 size=   97024kB time=00:10:52.23 bitrate=1218.6kbits/s speed=4.15x    frame=19717 fps=125 q=29.0 size=   97280kB time=00:10:55.06 bitrate=1216.5kbits/s speed=4.15x    frame=19800 fps=125 q=29.0 size=   97536kB time=00:10:57.84 bitrate=1214.6kbits/s speed=4.15x    frame=19872 fps=125 q=29.0 size=   97536kB time=00:11:00.23 bitrate=1210.2kbits/s speed=4.16x    frame=19959 fps=125 q=29.0 size=   97792kB time=00:11:03.13 bitrate=1208.1kbits/s speed=4.16x    frame=20025 fps=125 q=29.0 size=   98048kB time=00:11:05.34 bitrate=1207.2kbits/s speed=4.16x    frame=20080 fps=125 q=29.0 size=   98560kB time=00:11:07.17 bitrate=1210.2kbits/s speed=4.16x    frame=20156 fps=125 q=29.0 size=   98816kB time=00:11:09.70 bitrate=1208.7kbits/s speed=4.16x    frame=20230 fps=125 q=29.0 size=   99072kB time=00:11:12.17 bitrate=1207.4kbits/s speed=4.17x    frame=20303 fps=125 q=29.0 size=   99328kB time=00:11:14.60 bitrate=1206.2kbits/s speed=4.17x    frame=20357 fps=125 q=29.0 size=   99584kB time=00:11:16.40 bitrate=1206.1kbits/s speed=4.17x    frame=20400 fps=125 q=29.0 size=  100352kB time=00:11:17.83 bitrate=1212.8kbits/s speed=4.16x    frame=20454 fps=125 q=29.0 size=  100608kB time=00:11:19.63 bitrate=1212.7kbits/s speed=4.16x    frame=20508 fps=125 q=29.0 size=  101120kB time=00:11:21.43 bitrate=1215.6kbits/s speed=4.16x    frame=20558 fps=125 q=29.0 size=  101632kB time=00:11:23.10 bitrate=1218.8kbits/s speed=4.15x    frame=20609 fps=125 q=29.0 size=  101888kB time=00:11:24.80 bitrate=1218.8kbits/s speed=4.15x    frame=20680 fps=125 q=29.0 size=  102144kB time=00:11:27.17 bitrate=1217.7kbits/s speed=4.15x    frame=20751 fps=125 q=29.0 size=  102656kB time=00:11:29.53 bitrate=1219.6kbits/s speed=4.15x    frame=20810 fps=125 q=29.0 size=  103168kB time=00:11:31.51 bitrate=1222.2kbits/s speed=4.15x    frame=20867 fps=125 q=29.0 size=  103424kB time=00:11:33.40 bitrate=1221.9kbits/s speed=4.15x    frame=20912 fps=125 q=29.0 size=  103936kB time=00:11:34.90 bitrate=1225.3kbits/s speed=4.15x    frame=20964 fps=125 q=29.0 size=  104448kB time=00:11:36.64 bitrate=1228.2kbits/s speed=4.15x    frame=21023 fps=125 q=29.0 size=  104960kB time=00:11:38.60 bitrate=1230.8kbits/s speed=4.14x    frame=21072 fps=125 q=29.0 size=  105216kB time=00:11:40.24 bitrate=1230.9kbits/s speed=4.14x    frame=21134 fps=125 q=29.0 size=  105472kB time=00:11:42.31 bitrate=1230.3kbits/s speed=4.14x    frame=21194 fps=125 q=29.0 size=  105728kB time=00:11:44.30 bitrate=1229.8kbits/s speed=4.14x    frame=21264 fps=125 q=29.0 size=  105984kB time=00:11:46.63 bitrate=1228.7kbits/s speed=4.14x    frame=21325 fps=125 q=29.0 size=  106240kB time=00:11:48.67 bitrate=1228.1kbits/s speed=4.14x    frame=21392 fps=125 q=29.0 size=  106496kB time=00:11:50.90 bitrate=1227.2kbits/s speed=4.14x    frame=21442 fps=124 q=29.0 size=  106752kB time=00:11:52.57 bitrate=1227.3kbits/s speed=4.14x    frame=21497 fps=124 q=29.0 size=  107008kB time=00:11:54.40 bitrate=1227.0kbits/s speed=4.14x    frame=21558 fps=124 q=29.0 size=  107264kB time=00:11:56.43 bitrate=1226.5kbits/s speed=4.13x    frame=21616 fps=124 q=29.0 size=  107520kB time=00:11:58.37 bitrate=1226.1kbits/s speed=4.13x    frame=21675 fps=124 q=29.0 size=  107776kB time=00:12:00.33 bitrate=1225.7kbits/s speed=4.13x    frame=21737 fps=124 q=29.0 size=  108032kB time=00:12:02.40 bitrate=1225.1kbits/s speed=4.13x    frame=21795 fps=124 q=29.0 size=  108288kB time=00:12:04.34 bitrate=1224.7kbits/s speed=4.13x    frame=21860 fps=124 q=29.0 size=  108544kB time=00:12:06.50 bitrate=1223.9kbits/s speed=4.13x    frame=21919 fps=124 q=29.0 size=  108544kB time=00:12:08.47 bitrate=1220.6kbits/s speed=4.13x    frame=21974 fps=124 q=29.0 size=  109056kB time=00:12:10.30 bitrate=1223.3kbits/s speed=4.13x    frame=22031 fps=124 q=29.0 size=  109312kB time=00:12:12.20 bitrate=1223.0kbits/s speed=4.13x    frame=22089 fps=124 q=29.0 size=  109568kB time=00:12:14.14 bitrate=1222.6kbits/s speed=4.12x    frame=22144 fps=124 q=29.0 size=  109824kB time=00:12:15.97 bitrate=1222.4kbits/s speed=4.12x    frame=22206 fps=124 q=29.0 size=  110080kB time=00:12:18.04 bitrate=1221.8kbits/s speed=4.12x    frame=22263 fps=124 q=29.0 size=  110080kB time=00:12:19.93 bitrate=1218.7kbits/s speed=4.12x    frame=22323 fps=124 q=29.0 size=  110592kB time=00:12:21.93 bitrate=1221.1kbits/s speed=4.12x    frame=22381 fps=124 q=29.0 size=  110592kB time=00:12:23.87 bitrate=1217.9kbits/s speed=4.12x    frame=22441 fps=124 q=29.0 size=  110848kB time=00:12:25.87 bitrate=1217.5kbits/s speed=4.12x    frame=22489 fps=124 q=29.0 size=  111360kB time=00:12:27.47 bitrate=1220.5kbits/s speed=4.11x    frame=22554 fps=124 q=29.0 size=  111360kB time=00:12:29.63 bitrate=1216.9kbits/s speed=4.11x    frame=22609 fps=124 q=29.0 size=  111616kB time=00:12:31.46 bitrate=1216.8kbits/s speed=4.11x    frame=22669 fps=124 q=29.0 size=  111872kB time=00:12:33.46 bitrate=1216.3kbits/s speed=4.11x    frame=22727 fps=124 q=29.0 size=  112384kB time=00:12:35.40 bitrate=1218.8kbits/s speed=4.11x    frame=22777 fps=124 q=29.0 size=  112384kB time=00:12:37.06 bitrate=1216.1kbits/s speed=4.11x    frame=22851 fps=124 q=29.0 size=  112896kB time=00:12:39.53 bitrate=1217.6kbits/s speed=4.11x    frame=22906 fps=124 q=29.0 size=  113152kB time=00:12:41.36 bitrate=1217.5kbits/s speed=4.11x    frame=22961 fps=124 q=29.0 size=  113408kB time=00:12:43.20 bitrate=1217.3kbits/s speed=4.11x    frame=23023 fps=124 q=29.0 size=  113664kB time=00:12:45.26 bitrate=1216.7kbits/s speed=4.11x    frame=23083 fps=123 q=29.0 size=  113920kB time=00:12:47.27 bitrate=1216.3kbits/s speed= 4.1x    frame=23135 fps=123 q=29.0 size=  114176kB time=00:12:49.00 bitrate=1216.3kbits/s speed= 4.1x    frame=23199 fps=123 q=29.0 size=  114432kB time=00:12:51.13 bitrate=1215.6kbits/s speed= 4.1x    frame=23255 fps=123 q=29.0 size=  114432kB time=00:12:53.00 bitrate=1212.7kbits/s speed= 4.1x    frame=23304 fps=123 q=29.0 size=  114688kB time=00:12:54.64 bitrate=1212.9kbits/s speed= 4.1x    frame=23355 fps=123 q=29.0 size=  114944kB time=00:12:56.33 bitrate=1212.9kbits/s speed= 4.1x    frame=23408 fps=123 q=29.0 size=  115200kB time=00:12:58.10 bitrate=1212.8kbits/s speed= 4.1x    frame=23467 fps=123 q=29.0 size=  115456kB time=00:13:00.07 bitrate=1212.5kbits/s speed= 4.1x    frame=23520 fps=123 q=29.0 size=  115712kB time=00:13:01.83 bitrate=1212.4kbits/s speed=4.09x    frame=23582 fps=123 q=29.0 size=  115968kB time=00:13:03.90 bitrate=1211.9kbits/s speed=4.09x    frame=23639 fps=123 q=29.0 size=  116224kB time=00:13:05.80 bitrate=1211.6kbits/s speed=4.09x    frame=23700 fps=123 q=29.0 size=  116480kB time=00:13:07.83 bitrate=1211.2kbits/s speed=4.09x    frame=23750 fps=123 q=29.0 size=  116736kB time=00:13:09.50 bitrate=1211.3kbits/s speed=4.09x    frame=23810 fps=123 q=29.0 size=  116992kB time=00:13:11.50 bitrate=1210.9kbits/s speed=4.09x    frame=23871 fps=123 q=29.0 size=  117248kB time=00:13:13.54 bitrate=1210.4kbits/s speed=4.09x    frame=23927 fps=123 q=29.0 size=  117504kB time=00:13:15.40 bitrate=1210.2kbits/s speed=4.09x    frame=23981 fps=123 q=29.0 size=  117760kB time=00:13:17.21 bitrate=1210.1kbits/s speed=4.08x    frame=24038 fps=123 q=29.0 size=  118016kB time=00:13:19.10 bitrate=1209.8kbits/s speed=4.08x    frame=24092 fps=123 q=29.0 size=  118272kB time=00:13:20.90 bitrate=1209.7kbits/s speed=4.08x    frame=24151 fps=123 q=29.0 size=  118528kB time=00:13:22.87 bitrate=1209.4kbits/s speed=4.08x    frame=24206 fps=123 q=29.0 size=  118784kB time=00:13:24.71 bitrate=1209.2kbits/s speed=4.08x    frame=24264 fps=123 q=29.0 size=  119296kB time=00:13:26.63 bitrate=1211.5kbits/s speed=4.08x    frame=24325 fps=123 q=29.0 size=  119296kB time=00:13:28.66 bitrate=1208.5kbits/s speed=4.08x    frame=24385 fps=123 q=29.0 size=  119552kB time=00:13:30.67 bitrate=1208.1kbits/s speed=4.08x    frame=24446 fps=123 q=29.0 size=  119808kB time=00:13:32.70 bitrate=1207.7kbits/s speed=4.08x    frame=24499 fps=123 q=29.0 size=  120320kB time=00:13:34.46 bitrate=1210.2kbits/s speed=4.08x    frame=24557 fps=123 q=29.0 size=  120576kB time=00:13:36.40 bitrate=1209.9kbits/s speed=4.08x    frame=24614 fps=123 q=29.0 size=  120832kB time=00:13:38.30 bitrate=1209.6kbits/s speed=4.08x    frame=24660 fps=123 q=29.0 size=  121088kB time=00:13:39.83 bitrate=1209.9kbits/s speed=4.07x    frame=24721 fps=123 q=29.0 size=  121344kB time=00:13:41.86 bitrate=1209.5kbits/s speed=4.07x    frame=24768 fps=122 q=29.0 size=  121600kB time=00:13:43.43 bitrate=1209.7kbits/s speed=4.07x    frame=24831 fps=122 q=29.0 size=  122112kB time=00:13:45.53 bitrate=1211.7kbits/s speed=4.07x    frame=24890 fps=122 q=29.0 size=  122368kB time=00:13:47.51 bitrate=1211.4kbits/s speed=4.07x    frame=24951 fps=122 q=29.0 size=  122624kB time=00:13:49.53 bitrate=1211.0kbits/s speed=4.07x    frame=25008 fps=122 q=29.0 size=  122880kB time=00:13:51.43 bitrate=1210.7kbits/s speed=4.06x    frame=25058 fps=122 q=29.0 size=  123136kB time=00:13:53.10 bitrate=1210.8kbits/s speed=4.06x    frame=25107 fps=122 q=29.0 size=  123392kB time=00:13:54.73 bitrate=1211.0kbits/s speed=4.06x    frame=25164 fps=122 q=29.0 size=  123648kB time=00:13:56.63 bitrate=1210.7kbits/s speed=4.06x    frame=25227 fps=122 q=29.0 size=  124160kB time=00:13:58.73 bitrate=1212.7kbits/s speed=4.06x    frame=25284 fps=122 q=29.0 size=  124416kB time=00:14:00.63 bitrate=1212.4kbits/s speed=4.06x    frame=25344 fps=122 q=29.0 size=  124672kB time=00:14:02.63 bitrate=1212.0kbits/s speed=4.05x    frame=25397 fps=122 q=29.0 size=  124928kB time=00:14:04.40 bitrate=1212.0kbits/s speed=4.05x    frame=25451 fps=122 q=29.0 size=  125440kB time=00:14:06.20 bitrate=1214.4kbits/s speed=4.05x    frame=25512 fps=122 q=29.0 size=  125696kB time=00:14:08.23 bitrate=1213.9kbits/s speed=4.05x    frame=25571 fps=122 q=29.0 size=  125952kB time=00:14:10.20 bitrate=1213.6kbits/s speed=4.05x    frame=25618 fps=122 q=29.0 size=  126208kB time=00:14:11.77 bitrate=1213.8kbits/s speed=4.05x    frame=25680 fps=122 q=29.0 size=  126464kB time=00:14:13.84 bitrate=1213.3kbits/s speed=4.05x    frame=25734 fps=122 q=29.0 size=  126720kB time=00:14:15.63 bitrate=1213.2kbits/s speed=4.05x    frame=25789 fps=122 q=29.0 size=  126976kB time=00:14:17.46 bitrate=1213.1kbits/s speed=4.05x    frame=25844 fps=122 q=29.0 size=  127232kB time=00:14:19.30 bitrate=1212.9kbits/s speed=4.04x    frame=25897 fps=122 q=29.0 size=  127488kB time=00:14:21.06 bitrate=1212.9kbits/s speed=4.04x    frame=25957 fps=122 q=29.0 size=  127744kB time=00:14:23.06 bitrate=1212.5kbits/s speed=4.04x    frame=26005 fps=122 q=29.0 size=  127744kB time=00:14:24.66 bitrate=1210.3kbits/s speed=4.04x    frame=26067 fps=122 q=29.0 size=  128256kB time=00:14:26.73 bitrate=1212.2kbits/s speed=4.04x    frame=26114 fps=121 q=29.0 size=  128512kB time=00:14:28.30 bitrate=1212.4kbits/s speed=4.04x    frame=26174 fps=121 q=29.0 size=  128768kB time=00:14:30.30 bitrate=1212.1kbits/s speed=4.04x    frame=26234 fps=121 q=29.0 size=  129024kB time=00:14:32.30 bitrate=1211.7kbits/s speed=4.04x    frame=26288 fps=121 q=29.0 size=  129280kB time=00:14:34.10 bitrate=1211.6kbits/s speed=4.04x    frame=26340 fps=121 q=29.0 size=  129536kB time=00:14:35.83 bitrate=1211.6kbits/s speed=4.03x    frame=26401 fps=121 q=29.0 size=  129792kB time=00:14:37.87 bitrate=1211.2kbits/s speed=4.03x    frame=26461 fps=121 q=29.0 size=  130048kB time=00:14:39.87 bitrate=1210.8kbits/s speed=4.03x    frame=26517 fps=121 q=29.0 size=  130304kB time=00:14:41.73 bitrate=1210.6kbits/s speed=4.03x    frame=26568 fps=121 q=29.0 size=  130560kB time=00:14:43.43 bitrate=1210.7kbits/s speed=4.03x    frame=26623 fps=121 q=29.0 size=  130816kB time=00:14:45.26 bitrate=1210.5kbits/s speed=4.03x    frame=26679 fps=121 q=26.0 size=  131072kB time=00:14:47.14 bitrate=1210.3kbits/s speed=4.03x    frame=26734 fps=121 q=29.0 size=  131328kB time=00:14:48.97 bitrate=1210.2kbits/s speed=4.03x    frame=26784 fps=121 q=29.0 size=  131584kB time=00:14:50.63 bitrate=1210.3kbits/s speed=4.03x    frame=26843 fps=121 q=29.0 size=  131840kB time=00:14:52.60 bitrate=1210.0kbits/s speed=4.03x    frame=26901 fps=121 q=29.0 size=  132096kB time=00:14:54.53 bitrate=1209.7kbits/s speed=4.02x    frame=26955 fps=121 q=29.0 size=  132352kB time=00:14:56.33 bitrate=1209.6kbits/s speed=4.02x    frame=27012 fps=121 q=29.0 size=  132608kB time=00:14:58.24 bitrate=1209.4kbits/s speed=4.02x    frame=27062 fps=121 q=29.0 size=  132864kB time=00:14:59.91 bitrate=1209.5kbits/s speed=4.02x    frame=27120 fps=121 q=29.0 size=  133120kB time=00:15:01.83 bitrate=1209.2kbits/s speed=4.02x    frame=27171 fps=121 q=29.0 size=  133376kB time=00:15:03.53 bitrate=1209.3kbits/s speed=4.02x    frame=27228 fps=121 q=29.0 size=  133632kB time=00:15:05.43 bitrate=1209.0kbits/s speed=4.02x    frame=27288 fps=121 q=29.0 size=  133888kB time=00:15:07.43 bitrate=1208.7kbits/s speed=4.01x    frame=27345 fps=121 q=29.0 size=  134144kB time=00:15:09.33 bitrate=1208.5kbits/s speed=4.01x    frame=27403 fps=121 q=29.0 size=  134400kB time=00:15:11.26 bitrate=1208.2kbits/s speed=4.01x    frame=27457 fps=121 q=29.0 size=  134656kB time=00:15:13.07 bitrate=1208.1kbits/s speed=4.01x    frame=27520 fps=121 q=29.0 size=  134912kB time=00:15:15.16 bitrate=1207.6kbits/s speed=4.01x    frame=27578 fps=121 q=29.0 size=  135168kB time=00:15:17.10 bitrate=1207.4kbits/s speed=4.01x    frame=27636 fps=121 q=29.0 size=  135424kB time=00:15:19.04 bitrate=1207.1kbits/s speed=4.01x    frame=27685 fps=121 q=29.0 size=  135680kB time=00:15:20.67 bitrate=1207.3kbits/s speed=4.01x    frame=27744 fps=121 q=29.0 size=  135936kB time=00:15:22.64 bitrate=1207.0kbits/s speed=4.01x    frame=27804 fps=121 q=29.0 size=  136192kB time=00:15:24.64 bitrate=1206.6kbits/s speed=4.01x    frame=27864 fps=120 q=29.0 size=  136448kB time=00:15:26.63 bitrate=1206.3kbits/s speed=4.01x    frame=27918 fps=120 q=29.0 size=  136704kB time=00:15:28.43 bitrate=1206.2kbits/s speed=4.01x    frame=27973 fps=120 q=29.0 size=  136960kB time=00:15:30.26 bitrate=1206.1kbits/s speed=   4x    frame=28022 fps=120 q=29.0 size=  137216kB time=00:15:31.90 bitrate=1206.2kbits/s speed=   4x    frame=28061 fps=120 q=29.0 size=  137216kB time=00:15:33.20 bitrate=1204.5kbits/s speed=   4x    frame=28106 fps=120 q=29.0 size=  137472kB time=00:15:34.70 bitrate=1204.8kbits/s speed=3.99x    frame=28157 fps=120 q=29.0 size=  137472kB time=00:15:36.40 bitrate=1202.7kbits/s speed=3.99x    frame=28201 fps=120 q=29.0 size=  137728kB time=00:15:37.87 bitrate=1203.0kbits/s speed=3.99x    frame=28254 fps=120 q=29.0 size=  137984kB time=00:15:39.64 bitrate=1203.0kbits/s speed=3.99x    frame=28288 fps=120 q=29.0 size=  138240kB time=00:15:40.77 bitrate=1203.7kbits/s speed=3.98x    frame=28319 fps=120 q=29.0 size=  138240kB time=00:15:41.80 bitrate=1202.4kbits/s speed=3.98x    frame=28348 fps=119 q=29.0 size=  138496kB time=00:15:42.77 bitrate=1203.4kbits/s speed=3.97x    frame=28380 fps=119 q=29.0 size=  138496kB time=00:15:43.84 bitrate=1202.1kbits/s speed=3.97x    frame=28416 fps=119 q=29.0 size=  138752kB time=00:15:45.03 bitrate=1202.8kbits/s speed=3.96x    frame=28455 fps=119 q=29.0 size=  139008kB time=00:15:46.33 bitrate=1203.3kbits/s speed=3.96x    frame=28490 fps=119 q=29.0 size=  139264kB time=00:15:47.51 bitrate=1204.0kbits/s speed=3.95x    frame=28527 fps=119 q=29.0 size=  139264kB time=00:15:48.74 bitrate=1202.5kbits/s speed=3.95x    frame=28550 fps=119 q=29.0 size=  139520kB time=00:15:49.50 bitrate=1203.7kbits/s speed=3.94x    frame=28586 fps=118 q=29.0 size=  139520kB time=00:15:50.70 bitrate=1202.2kbits/s speed=3.94x    frame=28620 fps=118 q=29.0 size=  139776kB time=00:15:51.83 bitrate=1203.0kbits/s speed=3.93x    frame=28649 fps=118 q=29.0 size=  139776kB time=00:15:52.80 bitrate=1201.8kbits/s speed=3.93x    frame=28679 fps=118 q=26.0 size=  140032kB time=00:15:53.80 bitrate=1202.7kbits/s speed=3.93x    frame=28705 fps=118 q=29.0 size=  140288kB time=00:15:54.66 bitrate=1203.8kbits/s speed=3.92x    frame=28741 fps=118 q=29.0 size=  140288kB time=00:15:55.87 bitrate=1202.3kbits/s speed=3.92x    frame=28769 fps=118 q=29.0 size=  140544kB time=00:15:56.80 bitrate=1203.3kbits/s speed=3.91x    frame=28804 fps=118 q=29.0 size=  140800kB time=00:15:57.96 bitrate=1204.0kbits/s speed=3.91x    frame=28837 fps=117 q=29.0 size=  140800kB time=00:15:59.07 bitrate=1202.7kbits/s speed=3.91x    frame=28863 fps=117 q=29.0 size=  141056kB time=00:15:59.93 bitrate=1203.8kbits/s speed= 3.9x    frame=28900 fps=117 q=29.0 size=  141056kB time=00:16:01.16 bitrate=1202.2kbits/s speed= 3.9x    frame=28931 fps=117 q=29.0 size=  141312kB time=00:16:02.21 bitrate=1203.1kbits/s speed=3.89x    frame=28959 fps=117 q=29.0 size=  141568kB time=00:16:03.14 bitrate=1204.1kbits/s speed=3.89x    frame=28999 fps=117 q=29.0 size=  141568kB time=00:16:04.46 bitrate=1202.5kbits/s speed=3.89x    frame=29030 fps=117 q=29.0 size=  141824kB time=00:16:05.50 bitrate=1203.3kbits/s speed=3.88x    frame=29073 fps=117 q=29.0 size=  142080kB time=00:16:06.93 bitrate=1203.7kbits/s speed=3.88x    frame=29100 fps=117 q=29.0 size=  142080kB time=00:16:07.83 bitrate=1202.6kbits/s speed=3.88x    frame=29132 fps=116 q=29.0 size=  142080kB time=00:16:08.90 bitrate=1201.3kbits/s speed=3.87x    frame=29162 fps=116 q=29.0 size=  142336kB time=00:16:09.90 bitrate=1202.2kbits/s speed=3.87x    frame=29196 fps=116 q=29.0 size=  142592kB time=00:16:11.03 bitrate=1203.0kbits/s speed=3.87x    frame=29234 fps=116 q=29.0 size=  142848kB time=00:16:12.31 bitrate=1203.5kbits/s speed=3.86x    frame=29274 fps=116 q=29.0 size=  142848kB time=00:16:13.63 bitrate=1201.9kbits/s speed=3.86x    frame=29303 fps=116 q=29.0 size=  142848kB time=00:16:14.61 bitrate=1200.7kbits/s speed=3.86x    frame=29331 fps=116 q=29.0 size=  143104kB time=00:16:15.53 bitrate=1201.7kbits/s speed=3.85x    frame=29365 fps=116 q=29.0 size=  143104kB time=00:16:16.67 bitrate=1200.3kbits/s speed=3.85x    frame=29399 fps=116 q=29.0 size=  143360kB time=00:16:17.80 bitrate=1201.1kbits/s speed=3.85x    frame=29429 fps=115 q=26.0 size=  143360kB time=00:16:18.80 bitrate=1199.8kbits/s speed=3.84x    frame=29462 fps=115 q=29.0 size=  143616kB time=00:16:19.90 bitrate=1200.6kbits/s speed=3.84x    frame=29496 fps=115 q=29.0 size=  143872kB time=00:16:21.04 bitrate=1201.4kbits/s speed=3.83x    frame=29532 fps=115 q=29.0 size=  143872kB time=00:16:22.23 bitrate=1199.9kbits/s speed=3.83x    frame=29568 fps=115 q=29.0 size=  144128kB time=00:16:23.43 bitrate=1200.6kbits/s speed=3.83x    frame=29605 fps=115 q=29.0 size=  144128kB time=00:16:24.66 bitrate=1199.1kbits/s speed=3.82x    frame=29637 fps=115 q=29.0 size=  144384kB time=00:16:25.73 bitrate=1199.9kbits/s speed=3.82x    frame=29672 fps=115 q=29.0 size=  144384kB time=00:16:26.90 bitrate=1198.5kbits/s speed=3.82x    frame=29701 fps=115 q=29.0 size=  144640kB time=00:16:27.86 bitrate=1199.4kbits/s speed=3.81x    frame=29744 fps=115 q=29.0 size=  144896kB time=00:16:29.30 bitrate=1199.8kbits/s speed=3.81x    frame=29775 fps=114 q=29.0 size=  144896kB time=00:16:30.33 bitrate=1198.6kbits/s speed=3.81x    frame=29815 fps=114 q=29.0 size=  145152kB time=00:16:31.67 bitrate=1199.1kbits/s speed= 3.8x    frame=29843 fps=114 q=29.0 size=  145152kB time=00:16:32.60 bitrate=1197.9kbits/s speed= 3.8x    frame=29868 fps=114 q=29.0 size=  145408kB time=00:16:33.44 bitrate=1199.0kbits/s speed=3.79x    frame=29905 fps=114 q=29.0 size=  145408kB time=00:16:34.67 bitrate=1197.6kbits/s speed=3.79x    frame=29933 fps=114 q=29.0 size=  145664kB time=00:16:35.60 bitrate=1198.6kbits/s speed=3.79x    frame=29967 fps=114 q=29.0 size=  145920kB time=00:16:36.73 bitrate=1199.3kbits/s speed=3.78x    frame=30000 fps=114 q=29.0 size=  145920kB time=00:16:37.83 bitrate=1198.0kbits/s speed=3.78x    frame=30036 fps=114 q=29.0 size=  145920kB time=00:16:39.03 bitrate=1196.5kbits/s speed=3.78x    frame=30071 fps=113 q=29.0 size=  146176kB time=00:16:40.20 bitrate=1197.2kbits/s speed=3.77x    frame=30098 fps=113 q=29.0 size=  146432kB time=00:16:41.10 bitrate=1198.2kbits/s speed=3.77x    frame=30131 fps=113 q=29.0 size=  146432kB time=00:16:42.20 bitrate=1196.9kbits/s speed=3.77x    frame=30165 fps=113 q=29.0 size=  146688kB time=00:16:43.33 bitrate=1197.7kbits/s speed=3.76x    frame=30194 fps=113 q=29.0 size=  146688kB time=00:16:44.30 bitrate=1196.5kbits/s speed=3.76x    frame=30229 fps=113 q=29.0 size=  146944kB time=00:16:45.47 bitrate=1197.2kbits/s speed=3.76x    frame=30259 fps=113 q=29.0 size=  146944kB time=00:16:46.46 bitrate=1196.0kbits/s speed=3.75x    frame=30290 fps=113 q=29.0 size=  147200kB time=00:16:47.50 bitrate=1196.9kbits/s speed=3.75x    frame=30327 fps=113 q=29.0 size=  147456kB time=00:16:48.74 bitrate=1197.5kbits/s speed=3.75x    frame=30363 fps=113 q=29.0 size=  147456kB time=00:16:49.93 bitrate=1196.1kbits/s speed=3.74x    frame=30398 fps=112 q=29.0 size=  147712kB time=00:16:51.11 bitrate=1196.8kbits/s speed=3.74x    frame=30429 fps=112 q=26.0 size=  147712kB time=00:16:52.13 bitrate=1195.6kbits/s speed=3.74x    frame=30459 fps=112 q=29.0 size=  147968kB time=00:16:53.13 bitrate=1196.4kbits/s speed=3.73x    frame=30498 fps=112 q=29.0 size=  148224kB time=00:16:54.43 bitrate=1197.0kbits/s speed=3.73x    frame=30528 fps=112 q=29.0 size=  148224kB time=00:16:55.43 bitrate=1195.8kbits/s speed=3.73x    frame=30574 fps=112 q=29.0 size=  148480kB time=00:16:56.96 bitrate=1196.1kbits/s speed=3.72x    frame=30606 fps=112 q=29.0 size=  148480kB time=00:16:58.03 bitrate=1194.8kbits/s speed=3.72x    frame=30636 fps=112 q=29.0 size=  148736kB time=00:16:59.03 bitrate=1195.7kbits/s speed=3.72x    frame=30670 fps=112 q=29.0 size=  148736kB time=00:17:00.16 bitrate=1194.4kbits/s speed=3.72x    frame=30703 fps=112 q=29.0 size=  148992kB time=00:17:01.26 bitrate=1195.1kbits/s speed=3.71x    frame=30732 fps=112 q=29.0 size=  149248kB time=00:17:02.23 bitrate=1196.0kbits/s speed=3.71x    frame=30770 fps=111 q=29.0 size=  149248kB time=00:17:03.51 bitrate=1194.6kbits/s speed=3.71x    frame=30804 fps=111 q=29.0 size=  149504kB time=00:17:04.63 bitrate=1195.3kbits/s speed= 3.7x    frame=30840 fps=111 q=29.0 size=  149504kB time=00:17:05.83 bitrate=1193.9kbits/s speed= 3.7x    frame=30869 fps=111 q=29.0 size=  149760kB time=00:17:06.80 bitrate=1194.8kbits/s speed= 3.7x    frame=30904 fps=111 q=29.0 size=  149760kB time=00:17:07.97 bitrate=1193.5kbits/s speed= 3.7x    frame=30938 fps=111 q=29.0 size=  150016kB time=00:17:09.10 bitrate=1194.2kbits/s speed=3.69x    frame=30969 fps=111 q=29.0 size=  150272kB time=00:17:10.13 bitrate=1195.0kbits/s speed=3.69x    frame=30996 fps=111 q=29.0 size=  150272kB time=00:17:11.03 bitrate=1194.0kbits/s speed=3.68x    frame=31030 fps=111 q=29.0 size=  150528kB time=00:17:12.17 bitrate=1194.7kbits/s speed=3.68x    frame=31067 fps=111 q=29.0 size=  150784kB time=00:17:13.40 bitrate=1195.3kbits/s speed=3.68x    frame=31102 fps=111 q=29.0 size=  150784kB time=00:17:14.56 bitrate=1194.0kbits/s speed=3.68x    frame=31128 fps=110 q=29.0 size=  151040kB time=00:17:15.43 bitrate=1195.0kbits/s speed=3.67x    frame=31164 fps=110 q=29.0 size=  151040kB time=00:17:16.63 bitrate=1193.6kbits/s speed=3.67x    frame=31196 fps=110 q=29.0 size=  151296kB time=00:17:17.70 bitrate=1194.4kbits/s speed=3.67x    frame=31232 fps=110 q=29.0 size=  151552kB time=00:17:18.90 bitrate=1195.0kbits/s speed=3.66x    frame=31261 fps=110 q=29.0 size=  151552kB time=00:17:19.86 bitrate=1193.9kbits/s speed=3.66x    frame=31294 fps=110 q=29.0 size=  151808kB time=00:17:20.97 bitrate=1194.7kbits/s speed=3.66x    frame=31320 fps=110 q=29.0 size=  152064kB time=00:17:21.83 bitrate=1195.7kbits/s speed=3.65x    frame=31353 fps=110 q=29.0 size=  152064kB time=00:17:22.93 bitrate=1194.4kbits/s speed=3.65x    frame=31385 fps=110 q=29.0 size=  152320kB time=00:17:24.00 bitrate=1195.2kbits/s speed=3.65x    frame=31404 fps=110 q=29.0 size=  152320kB time=00:17:24.64 bitrate=1194.5kbits/s speed=3.64x    frame=31435 fps=109 q=29.0 size=  152576kB time=00:17:25.66 bitrate=1195.3kbits/s speed=3.64x    frame=31464 fps=109 q=29.0 size=  152832kB time=00:17:26.63 bitrate=1196.2kbits/s speed=3.64x    frame=31500 fps=109 q=29.0 size=  153088kB time=00:17:27.83 bitrate=1196.8kbits/s speed=3.64x    frame=31528 fps=109 q=29.0 size=  153088kB time=00:17:28.77 bitrate=1195.8kbits/s speed=3.63x    frame=31557 fps=109 q=29.0 size=  153344kB time=00:17:29.73 bitrate=1196.7kbits/s speed=3.63x    frame=31587 fps=109 q=29.0 size=  153344kB time=00:17:30.73 bitrate=1195.5kbits/s speed=3.62x    frame=31610 fps=109 q=29.0 size=  153600kB time=00:17:31.50 bitrate=1196.7kbits/s speed=3.62x    frame=31634 fps=109 q=29.0 size=  153600kB time=00:17:32.30 bitrate=1195.7kbits/s speed=3.61x    frame=31664 fps=109 q=29.0 size=  153856kB time=00:17:33.30 bitrate=1196.6kbits/s speed=3.61x    frame=31705 fps=108 q=29.0 size=  154112kB time=00:17:34.67 bitrate=1197.0kbits/s speed=3.61x    frame=31741 fps=108 q=29.0 size=  154112kB time=00:17:35.86 bitrate=1195.7kbits/s speed=3.61x    frame=31776 fps=108 q=29.0 size=  154368kB time=00:17:37.04 bitrate=1196.3kbits/s speed= 3.6x    frame=31813 fps=108 q=29.0 size=  154368kB time=00:17:38.27 bitrate=1195.0kbits/s speed= 3.6x    frame=31852 fps=108 q=29.0 size=  154624kB time=00:17:39.57 bitrate=1195.5kbits/s speed= 3.6x    frame=31886 fps=108 q=29.0 size=  154880kB time=00:17:40.71 bitrate=1196.2kbits/s speed= 3.6x    frame=31913 fps=108 q=29.0 size=  154880kB time=00:17:41.60 bitrate=1195.2kbits/s speed=3.59x    frame=31945 fps=108 q=29.0 size=  155136kB time=00:17:42.66 bitrate=1195.9kbits/s speed=3.59x    frame=31982 fps=108 q=29.0 size=  155392kB time=00:17:43.90 bitrate=1196.5kbits/s speed=3.59x    frame=32016 fps=108 q=29.0 size=  155392kB time=00:17:45.03 bitrate=1195.2kbits/s speed=3.58x    frame=32055 fps=108 q=29.0 size=  155648kB time=00:17:46.33 bitrate=1195.8kbits/s speed=3.58x    frame=32088 fps=108 q=29.0 size=  155904kB time=00:17:47.44 bitrate=1196.5kbits/s speed=3.58x    frame=32126 fps=108 q=29.0 size=  156160kB time=00:17:48.70 bitrate=1197.0kbits/s speed=3.58x    frame=32161 fps=107 q=29.0 size=  156416kB time=00:17:49.86 bitrate=1197.7kbits/s speed=3.57x    frame=32196 fps=107 q=29.0 size=  156672kB time=00:17:51.04 bitrate=1198.3kbits/s speed=3.57x    frame=32222 fps=107 q=29.0 size=  156928kB time=00:17:51.90 bitrate=1199.3kbits/s speed=3.57x    frame=32265 fps=107 q=29.0 size=  157184kB time=00:17:53.34 bitrate=1199.7kbits/s speed=3.57x    frame=32298 fps=107 q=29.0 size=  157440kB time=00:17:54.43 bitrate=1200.4kbits/s speed=3.56x    frame=32319 fps=107 q=29.0 size=  157440kB time=00:17:55.13 bitrate=1199.6kbits/s speed=3.56x    frame=32357 fps=107 q=29.0 size=  157952kB time=00:17:56.40 bitrate=1202.1kbits/s speed=3.56x    frame=32399 fps=107 q=29.0 size=  157952kB time=00:17:57.80 bitrate=1200.5kbits/s speed=3.56x    frame=32440 fps=107 q=29.0 size=  157952kB time=00:17:59.17 bitrate=1199.0kbits/s speed=3.56x    frame=32482 fps=107 q=29.0 size=  158208kB time=00:18:00.56 bitrate=1199.4kbits/s speed=3.56x    frame=32511 fps=107 q=29.0 size=  158208kB time=00:18:01.53 bitrate=1198.3kbits/s speed=3.55x    frame=32536 fps=107 q=29.0 size=  158464kB time=00:18:02.37 bitrate=1199.3kbits/s speed=3.55x    frame=32570 fps=107 q=29.0 size=  158720kB time=00:18:03.51 bitrate=1200.0kbits/s speed=3.54x    frame=32596 fps=106 q=29.0 size=  158976kB time=00:18:04.37 bitrate=1201.0kbits/s speed=3.54x    frame=32624 fps=106 q=29.0 size=  158976kB time=00:18:05.30 bitrate=1200.0kbits/s speed=3.54x    frame=32657 fps=106 q=29.0 size=  159232kB time=00:18:06.40 bitrate=1200.7kbits/s speed=3.54x    frame=32683 fps=106 q=29.0 size=  159488kB time=00:18:07.27 bitrate=1201.7kbits/s speed=3.53x    frame=32704 fps=106 q=29.0 size=  159488kB time=00:18:07.97 bitrate=1200.9kbits/s speed=3.53x    frame=32749 fps=106 q=29.0 size=  160000kB time=00:18:09.46 bitrate=1203.1kbits/s speed=3.53x    frame=32779 fps=106 q=29.0 size=  160256kB time=00:18:10.47 bitrate=1203.9kbits/s speed=3.53x    frame=32802 fps=106 q=29.0 size=  160256kB time=00:18:11.24 bitrate=1203.0kbits/s speed=3.52x    frame=32838 fps=106 q=29.0 size=  160768kB time=00:18:12.43 bitrate=1205.6kbits/s speed=3.52x    frame=32869 fps=106 q=29.0 size=  160768kB time=00:18:13.47 bitrate=1204.4kbits/s speed=3.52x    frame=32905 fps=106 q=29.0 size=  161024kB time=00:18:14.66 bitrate=1205.0kbits/s speed=3.52x    frame=32941 fps=106 q=29.0 size=  161280kB time=00:18:15.86 bitrate=1205.6kbits/s speed=3.51x    frame=32979 fps=106 q=29.0 size=  161536kB time=00:18:17.14 bitrate=1206.1kbits/s speed=3.51x    frame=33013 fps=105 q=29.0 size=  161536kB time=00:18:18.26 bitrate=1204.9kbits/s speed=3.51x    frame=33052 fps=105 q=29.0 size=  161792kB time=00:18:19.56 bitrate=1205.4kbits/s speed= 3.5x    frame=33083 fps=105 q=29.0 size=  162304kB time=00:18:20.60 bitrate=1208.1kbits/s speed= 3.5x    frame=33116 fps=105 q=29.0 size=  162304kB time=00:18:21.70 bitrate=1206.9kbits/s speed= 3.5x    frame=33147 fps=105 q=29.0 size=  162560kB time=00:18:22.73 bitrate=1207.6kbits/s speed= 3.5x    frame=33183 fps=105 q=29.0 size=  162816kB time=00:18:23.94 bitrate=1208.2kbits/s speed=3.49x    frame=33217 fps=105 q=29.0 size=  162816kB time=00:18:25.06 bitrate=1207.0kbits/s speed=3.49x    frame=33246 fps=105 q=29.0 size=  163072kB time=00:18:26.03 bitrate=1207.8kbits/s speed=3.49x    frame=33281 fps=105 q=29.0 size=  163328kB time=00:18:27.20 bitrate=1208.4kbits/s speed=3.49x    frame=33310 fps=105 q=26.0 size=  163328kB time=00:18:28.17 bitrate=1207.4kbits/s speed=3.48x    frame=33342 fps=105 q=29.0 size=  163840kB time=00:18:29.24 bitrate=1210.0kbits/s speed=3.48x    frame=33375 fps=105 q=29.0 size=  163840kB time=00:18:30.33 bitrate=1208.8kbits/s speed=3.48x    frame=33409 fps=105 q=29.0 size=  164096kB time=00:18:31.46 bitrate=1209.5kbits/s speed=3.48x    frame=33436 fps=104 q=29.0 size=  164096kB time=00:18:32.37 bitrate=1208.5kbits/s speed=3.47x    frame=33460 fps=104 q=29.0 size=  164352kB time=00:18:33.16 bitrate=1209.5kbits/s speed=3.47x    frame=33496 fps=104 q=29.0 size=  164608kB time=00:18:34.37 bitrate=1210.1kbits/s speed=3.47x    frame=33526 fps=104 q=29.0 size=  164608kB time=00:18:35.37 bitrate=1209.0kbits/s speed=3.47x    frame=33555 fps=104 q=29.0 size=  164864kB time=00:18:36.34 bitrate=1209.8kbits/s speed=3.46x    frame=33589 fps=104 q=29.0 size=  165120kB time=00:18:37.46 bitrate=1210.5kbits/s speed=3.46x    frame=33634 fps=104 q=29.0 size=  165376kB time=00:18:38.96 bitrate=1210.7kbits/s speed=3.46x    frame=33664 fps=104 q=29.0 size=  165632kB time=00:18:39.96 bitrate=1211.5kbits/s speed=3.46x    frame=33691 fps=104 q=29.0 size=  165632kB time=00:18:40.87 bitrate=1210.5kbits/s speed=3.45x    frame=33726 fps=104 q=29.0 size=  165888kB time=00:18:42.03 bitrate=1211.2kbits/s speed=3.45x    frame=33752 fps=104 q=29.0 size=  166144kB time=00:18:42.90 bitrate=1212.1kbits/s speed=3.45x    frame=33780 fps=104 q=29.0 size=  166144kB time=00:18:43.84 bitrate=1211.1kbits/s speed=3.45x    frame=33805 fps=103 q=29.0 size=  166400kB time=00:18:44.66 bitrate=1212.0kbits/s speed=3.44x    frame=33832 fps=103 q=29.0 size=  166656kB time=00:18:45.56 bitrate=1212.9kbits/s speed=3.44x    frame=33867 fps=103 q=29.0 size=  166656kB time=00:18:46.73 bitrate=1211.7kbits/s speed=3.44x    frame=33901 fps=103 q=29.0 size=  166912kB time=00:18:47.86 bitrate=1212.3kbits/s speed=3.43x    frame=33937 fps=103 q=29.0 size=  167168kB time=00:18:49.06 bitrate=1212.9kbits/s speed=3.43x    frame=33975 fps=103 q=29.0 size=  167424kB time=00:18:50.33 bitrate=1213.4kbits/s speed=3.43x    frame=34011 fps=103 q=29.0 size=  167424kB time=00:18:51.53 bitrate=1212.1kbits/s speed=3.43x    frame=34047 fps=103 q=29.0 size=  167680kB time=00:18:52.73 bitrate=1212.7kbits/s speed=3.42x    frame=34082 fps=103 q=29.0 size=  167936kB time=00:18:53.90 bitrate=1213.3kbits/s speed=3.42x    frame=34114 fps=103 q=29.0 size=  168192kB time=00:18:54.96 bitrate=1214.0kbits/s speed=3.42x    frame=34153 fps=103 q=29.0 size=  168448kB time=00:18:56.26 bitrate=1214.4kbits/s speed=3.42x    frame=34189 fps=103 q=29.0 size=  168704kB time=00:18:57.47 bitrate=1215.0kbits/s speed=3.42x    frame=34225 fps=103 q=29.0 size=  168704kB time=00:18:58.66 bitrate=1213.7kbits/s speed=3.41x    frame=34262 fps=103 q=29.0 size=  168960kB time=00:18:59.90 bitrate=1214.2kbits/s speed=3.41x    frame=34294 fps=103 q=29.0 size=  169216kB time=00:19:00.96 bitrate=1215.0kbits/s speed=3.41x    frame=34321 fps=102 q=29.0 size=  169216kB time=00:19:01.86 bitrate=1214.0kbits/s speed=3.41x    frame=34359 fps=102 q=29.0 size=  169728kB time=00:19:03.14 bitrate=1216.3kbits/s speed=3.41x    frame=34393 fps=102 q=29.0 size=  169984kB time=00:19:04.27 bitrate=1216.9kbits/s speed= 3.4x    frame=34417 fps=102 q=29.0 size=  169984kB time=00:19:05.06 bitrate=1216.1kbits/s speed= 3.4x    frame=34446 fps=102 q=29.0 size=  170240kB time=00:19:06.04 bitrate=1216.9kbits/s speed= 3.4x    frame=34484 fps=102 q=29.0 size=  170496kB time=00:19:07.30 bitrate=1217.4kbits/s speed= 3.4x    frame=34512 fps=102 q=29.0 size=  170496kB time=00:19:08.23 bitrate=1216.4kbits/s speed=3.39x    frame=34544 fps=102 q=29.0 size=  170752kB time=00:19:09.30 bitrate=1217.1kbits/s speed=3.39x    frame=34565 fps=102 q=29.0 size=  170752kB time=00:19:10.00 bitrate=1216.3kbits/s speed=3.39x    frame=34597 fps=102 q=29.0 size=  171008kB time=00:19:11.06 bitrate=1217.0kbits/s speed=3.39x    frame=34628 fps=102 q=29.0 size=  171264kB time=00:19:12.10 bitrate=1217.8kbits/s speed=3.38x    frame=34661 fps=102 q=29.0 size=  171520kB time=00:19:13.20 bitrate=1218.4kbits/s speed=3.38x    frame=34690 fps=102 q=29.0 size=  171520kB time=00:19:14.17 bitrate=1217.4kbits/s speed=3.38x    frame=34719 fps=102 q=29.0 size=  171776kB time=00:19:15.14 bitrate=1218.2kbits/s speed=3.38x    frame=34742 fps=101 q=29.0 size=  172032kB time=00:19:15.91 bitrate=1219.2kbits/s speed=3.37x    frame=34765 fps=101 q=29.0 size=  172032kB time=00:19:16.67 bitrate=1218.4kbits/s speed=3.37x    frame=34795 fps=101 q=29.0 size=  172288kB time=00:19:17.67 bitrate=1219.2kbits/s speed=3.37x    frame=34827 fps=101 q=29.0 size=  172544kB time=00:19:18.74 bitrate=1219.8kbits/s speed=3.37x    frame=34860 fps=101 q=29.0 size=  172800kB time=00:19:19.83 bitrate=1220.5kbits/s speed=3.36x    frame=34885 fps=101 q=29.0 size=  172800kB time=00:19:20.67 bitrate=1219.6kbits/s speed=3.36x    frame=34917 fps=101 q=29.0 size=  173056kB time=00:19:21.74 bitrate=1220.3kbits/s speed=3.36x    frame=34936 fps=101 q=29.0 size=  173312kB time=00:19:22.36 bitrate=1221.4kbits/s speed=3.35x    frame=34959 fps=101 q=29.0 size=  173312kB time=00:19:23.13 bitrate=1220.6kbits/s speed=3.35x    frame=34990 fps=101 q=29.0 size=  173568kB time=00:19:24.17 bitrate=1221.4kbits/s speed=3.35x    frame=35019 fps=101 q=29.0 size=  173824kB time=00:19:25.13 bitrate=1222.1kbits/s speed=3.34x    frame=35043 fps=100 q=29.0 size=  173824kB time=00:19:25.94 bitrate=1221.3kbits/s speed=3.34x    frame=35075 fps=100 q=29.0 size=  174080kB time=00:19:27.01 bitrate=1222.0kbits/s speed=3.34x    frame=35099 fps=100 q=29.0 size=  174336kB time=00:19:27.80 bitrate=1222.9kbits/s speed=3.34x    frame=35126 fps=100 q=29.0 size=  174592kB time=00:19:28.70 bitrate=1223.8kbits/s speed=3.33x    frame=35149 fps=100 q=29.0 size=  174592kB time=00:19:29.47 bitrate=1223.0kbits/s speed=3.33x    frame=35179 fps=100 q=29.0 size=  174848kB time=00:19:30.47 bitrate=1223.7kbits/s speed=3.33x    frame=35209 fps=100 q=29.0 size=  175104kB time=00:19:31.46 bitrate=1224.5kbits/s speed=3.33x    frame=35233 fps=100 q=26.0 size=  175104kB time=00:19:32.26 bitrate=1223.7kbits/s speed=3.32x    frame=35258 fps=100 q=29.0 size=  175360kB time=00:19:33.10 bitrate=1224.6kbits/s speed=3.32x    frame=35296 fps=100 q=29.0 size=  175616kB time=00:19:34.37 bitrate=1225.0kbits/s speed=3.32x    frame=35330 fps=100 q=29.0 size=  175616kB time=00:19:35.50 bitrate=1223.8kbits/s speed=3.31x    frame=35353 fps=100 q=29.0 size=  175872kB time=00:19:36.27 bitrate=1224.8kbits/s speed=3.31x    frame=35379 fps= 99 q=29.0 size=  176128kB time=00:19:37.13 bitrate=1225.7kbits/s speed=3.31x    frame=35404 fps= 99 q=29.0 size=  176384kB time=00:19:37.97 bitrate=1226.6kbits/s speed=3.31x    frame=35438 fps= 99 q=29.0 size=  176384kB time=00:19:39.10 bitrate=1225.4kbits/s speed=3.31x    frame=35464 fps= 99 q=29.0 size=  176640kB time=00:19:39.96 bitrate=1226.3kbits/s speed= 3.3x    frame=35494 fps= 99 q=29.0 size=  176896kB time=00:19:40.96 bitrate=1227.1kbits/s speed= 3.3x    frame=35521 fps= 99 q=29.0 size=  177152kB time=00:19:41.87 bitrate=1227.9kbits/s speed= 3.3x    frame=35545 fps= 99 q=29.0 size=  177152kB time=00:19:42.66 bitrate=1227.1kbits/s speed=3.29x    frame=35575 fps= 99 q=29.0 size=  177408kB time=00:19:43.66 bitrate=1227.8kbits/s speed=3.29x    frame=35614 fps= 99 q=29.0 size=  177664kB time=00:19:44.96 bitrate=1228.2kbits/s speed=3.29x    frame=35643 fps= 99 q=29.0 size=  177664kB time=00:19:45.93 bitrate=1227.2kbits/s speed=3.29x    frame=35673 fps= 99 q=29.0 size=  177920kB time=00:19:46.93 bitrate=1228.0kbits/s speed=3.29x    frame=35701 fps= 99 q=29.0 size=  178176kB time=00:19:47.86 bitrate=1228.8kbits/s speed=3.28x    frame=35732 fps= 99 q=29.0 size=  178432kB time=00:19:48.90 bitrate=1229.5kbits/s speed=3.28x    frame=35767 fps= 99 q=29.0 size=  178688kB time=00:19:50.06 bitrate=1230.0kbits/s speed=3.28x    frame=35799 fps= 99 q=29.0 size=  178944kB time=00:19:51.13 bitrate=1230.7kbits/s speed=3.28x    frame=35833 fps= 98 q=29.0 size=  179200kB time=00:19:52.27 bitrate=1231.3kbits/s speed=3.28x    frame=35872 fps= 98 q=29.0 size=  179456kB time=00:19:53.57 bitrate=1231.7kbits/s speed=3.27x    frame=35906 fps= 98 q=29.0 size=  179712kB time=00:19:54.71 bitrate=1232.3kbits/s speed=3.27x    frame=35933 fps= 98 q=29.0 size=  179968kB time=00:19:55.60 bitrate=1233.1kbits/s speed=3.27x    frame=35971 fps= 98 q=29.0 size=  180224kB time=00:19:56.87 bitrate=1233.5kbits/s speed=3.27x    frame=35994 fps= 98 q=29.0 size=  180480kB time=00:19:57.63 bitrate=1234.5kbits/s speed=3.27x    frame=36027 fps= 98 q=29.0 size=  180736kB time=00:19:58.73 bitrate=1235.1kbits/s speed=3.26x    frame=36049 fps= 98 q=29.0 size=  180736kB time=00:19:59.47 bitrate=1234.4kbits/s speed=3.26x    frame=36078 fps= 98 q=29.0 size=  180992kB time=00:20:00.43 bitrate=1235.1kbits/s speed=3.26x    frame=36107 fps= 98 q=29.0 size=  181248kB time=00:20:01.40 bitrate=1235.9kbits/s speed=3.26x    frame=36132 fps= 98 q=29.0 size=  181248kB time=00:20:02.23 bitrate=1235.0kbits/s speed=3.25x    frame=36152 fps= 98 q=29.0 size=  181504kB time=00:20:02.90 bitrate=1236.1kbits/s speed=3.25x    frame=36183 fps= 98 q=29.0 size=  181504kB time=00:20:03.93 bitrate=1235.0kbits/s speed=3.25x    frame=36206 fps= 98 q=29.0 size=  181760kB time=00:20:04.70 bitrate=1236.0kbits/s speed=3.25x    frame=36229 fps= 97 q=29.0 size=  182016kB time=00:20:05.46 bitrate=1236.9kbits/s speed=3.24x    frame=36255 fps= 97 q=29.0 size=  182272kB time=00:20:06.34 bitrate=1237.8kbits/s speed=3.24x    frame=36285 fps= 97 q=29.0 size=  182528kB time=00:20:07.34 bitrate=1238.5kbits/s speed=3.24x    frame=36313 fps= 97 q=29.0 size=  182528kB time=00:20:08.27 bitrate=1237.5kbits/s speed=3.24x    frame=36340 fps= 97 q=29.0 size=  182784kB time=00:20:09.17 bitrate=1238.3kbits/s speed=3.23x    frame=36353 fps= 97 q=29.0 size=  182784kB time=00:20:09.60 bitrate=1237.9kbits/s speed=3.23x    frame=36375 fps= 97 q=29.0 size=  183040kB time=00:20:10.33 bitrate=1238.9kbits/s speed=3.23x    frame=36402 fps= 97 q=29.0 size=  183296kB time=00:20:11.24 bitrate=1239.7kbits/s speed=3.23x    frame=36428 fps= 97 q=29.0 size=  183296kB time=00:20:12.10 bitrate=1238.8kbits/s speed=3.22x    frame=36452 fps= 97 q=29.0 size=  183552kB time=00:20:12.90 bitrate=1239.7kbits/s speed=3.22x    frame=36474 fps= 97 q=29.0 size=  183552kB time=00:20:13.63 bitrate=1239.0kbits/s speed=3.22x    frame=36493 fps= 97 q=29.0 size=  183808kB time=00:20:14.26 bitrate=1240.1kbits/s speed=3.22x    frame=36517 fps= 97 q=29.0 size=  184064kB time=00:20:15.07 bitrate=1241.0kbits/s speed=3.21x    frame=36542 fps= 97 q=29.0 size=  184320kB time=00:20:15.91 bitrate=1241.8kbits/s speed=3.21x    frame=36562 fps= 96 q=29.0 size=  184320kB time=00:20:16.56 bitrate=1241.2kbits/s speed=3.21x    frame=36584 fps= 96 q=29.0 size=  184576kB time=00:20:17.30 bitrate=1242.1kbits/s speed=3.21x    frame=36602 fps= 96 q=29.0 size=  184832kB time=00:20:17.90 bitrate=1243.2kbits/s speed= 3.2x    frame=36637 fps= 96 q=29.0 size=  184832kB time=00:20:19.07 bitrate=1242.0kbits/s speed= 3.2x    frame=36664 fps= 96 q=29.0 size=  185088kB time=00:20:19.97 bitrate=1242.8kbits/s speed= 3.2x    frame=36685 fps= 96 q=29.0 size=  185344kB time=00:20:20.67 bitrate=1243.9kbits/s speed= 3.2x    frame=36709 fps= 96 q=29.0 size=  185344kB time=00:20:21.46 bitrate=1243.0kbits/s speed=3.19x    frame=36737 fps= 96 q=29.0 size=  185600kB time=00:20:22.40 bitrate=1243.8kbits/s speed=3.19x    frame=36760 fps= 96 q=29.0 size=  185856kB time=00:20:23.16 bitrate=1244.7kbits/s speed=3.19x    frame=36781 fps= 96 q=29.0 size=  185856kB time=00:20:23.87 bitrate=1244.0kbits/s speed=3.19x    frame=36802 fps= 96 q=29.0 size=  186112kB time=00:20:24.57 bitrate=1245.0kbits/s speed=3.18x    frame=36834 fps= 96 q=29.0 size=  186368kB time=00:20:25.64 bitrate=1245.7kbits/s speed=3.18x    frame=36857 fps= 96 q=29.0 size=  186624kB time=00:20:26.40 bitrate=1246.6kbits/s speed=3.18x    frame=36892 fps= 96 q=29.0 size=  186880kB time=00:20:27.56 bitrate=1247.1kbits/s speed=3.18x    frame=36928 fps= 95 q=29.0 size=  186880kB time=00:20:28.77 bitrate=1245.9kbits/s speed=3.18x    frame=36957 fps= 95 q=29.0 size=  187136kB time=00:20:29.73 bitrate=1246.6kbits/s speed=3.18x    frame=36985 fps= 95 q=29.0 size=  187392kB time=00:20:30.66 bitrate=1247.4kbits/s speed=3.17x    frame=37020 fps= 95 q=29.0 size=  187648kB time=00:20:31.84 bitrate=1247.9kbits/s speed=3.17x    frame=37054 fps= 95 q=29.0 size=  187904kB time=00:20:32.97 bitrate=1248.4kbits/s speed=3.17x    frame=37086 fps= 95 q=29.0 size=  188160kB time=00:20:34.03 bitrate=1249.1kbits/s speed=3.17x    frame=37111 fps= 95 q=29.0 size=  188160kB time=00:20:34.86 bitrate=1248.2kbits/s speed=3.17x    frame=37143 fps= 95 q=29.0 size=  188416kB time=00:20:35.93 bitrate=1248.9kbits/s speed=3.16x    frame=37177 fps= 95 q=29.0 size=  188672kB time=00:20:37.06 bitrate=1249.4kbits/s speed=3.16x    frame=37213 fps= 95 q=29.0 size=  188928kB time=00:20:38.27 bitrate=1249.9kbits/s speed=3.16x    frame=37250 fps= 95 q=29.0 size=  189184kB time=00:20:39.50 bitrate=1250.3kbits/s speed=3.16x    frame=37279 fps= 95 q=29.0 size=  189440kB time=00:20:40.47 bitrate=1251.0kbits/s speed=3.16x    frame=37311 fps= 95 q=29.0 size=  189696kB time=00:20:41.53 bitrate=1251.7kbits/s speed=3.16x    frame=37347 fps= 95 q=29.0 size=  189696kB time=00:20:42.73 bitrate=1250.5kbits/s speed=3.16x    frame=37381 fps= 95 q=29.0 size=  189952kB time=00:20:43.86 bitrate=1251.0kbits/s speed=3.15x    frame=37413 fps= 95 q=29.0 size=  190208kB time=00:20:44.93 bitrate=1251.6kbits/s speed=3.15x    frame=37445 fps= 95 q=29.0 size=  190464kB time=00:20:46.00 bitrate=1252.2kbits/s speed=3.15x    frame=37480 fps= 95 q=29.0 size=  190720kB time=00:20:47.16 bitrate=1252.7kbits/s speed=3.15x    frame=37485 fps= 94 q=-1.0 Lsize=  192639kB time=00:20:49.58 bitrate=1262.9kbits/s speed=3.15x    
video:170509kB audio:20811kB subtitle:0kB other streams:0kB global headers:0kB muxing overhead: 0.689587%
[libx264 @ 000001bdab07c700] frame I:160   Avg QP:14.17  size:111774
[libx264 @ 000001bdab07c700] frame P:10834 Avg QP:19.50  size: 11974
[libx264 @ 000001bdab07c700] frame B:26491 Avg QP:23.70  size:  1019
[libx264 @ 000001bdab07c700] consecutive B-frames:  2.7%  7.5%  5.7% 84.2%
[libx264 @ 000001bdab07c700] mb I  I16..4: 58.6% 31.4% 10.0%
[libx264 @ 000001bdab07c700] mb P  I16..4:  6.1% 13.6%  0.3%  P16..4: 10.6%  1.3%  1.2%  0.0%  0.0%    skip:67.0%
[libx264 @ 000001bdab07c700] mb B  I16..4:  0.3%  0.2%  0.0%  B16..8:  6.8%  0.2%  0.0%  direct: 2.6%  skip:89.9%  L0:45.5% L1:54.0% BI: 0.5%
[libx264 @ 000001bdab07c700] 8x8 transform intra:64.1% inter:89.5%
[libx264 @ 000001bdab07c700] coded y,uvDC,uvAC intra: 5.7% 9.3% 1.9% inter: 1.5% 3.9% 0.2%
[libx264 @ 000001bdab07c700] i16 v,h,dc,p: 51% 47%  1%  0%
[libx264 @ 000001bdab07c700] i8 v,h,dc,ddl,ddr,vr,hd,vl,hu: 55% 14% 29%  0%  0%  0%  0%  0%  1%
[libx264 @ 000001bdab07c700] i4 v,h,dc,ddl,ddr,vr,hd,vl,hu: 28% 38% 15%  3%  3%  3%  4%  2%  4%
[libx264 @ 000001bdab07c700] i8c dc,h,v,p: 72% 20%  8%  0%
[libx264 @ 000001bdab07c700] Weighted P-Frames: Y:4.2% UV:2.7%
[libx264 @ 000001bdab07c700] ref P L0: 69.3%  9.7% 17.0%  3.9%  0.2%
[libx264 @ 000001bdab07c700] ref B L0: 72.9% 23.6%  3.6%
[libx264 @ 000001bdab07c700] ref B L1: 93.6%  6.4%
[libx264 @ 000001bdab07c700] kb/s:1117.89
